<svg width="67" height="157" viewBox="0 0 67 157" fill="none" xmlns="http://www.w3.org/2000/svg">
<path d="M43.6373 0.927173H34.9123C34.7898 0.927173 34.6722 0.878334 34.5855 0.791394C34.4989 0.704455 34.4502 0.586537 34.4502 0.463587C34.4502 0.340636 34.4989 0.222718 34.5855 0.135779C34.6722 0.0488393 34.7898 0 34.9123 0H43.6373C43.7599 0 43.8774 0.0488393 43.9641 0.135779C44.0508 0.222718 44.0995 0.340636 44.0995 0.463587C44.0995 0.586537 44.0508 0.704455 43.9641 0.791394C43.8774 0.878334 43.7599 0.927173 43.6373 0.927173Z" fill="#2090FB" fill-opacity="0.13"/>
<path d="M62.1721 14.4671C62.0495 14.4671 61.932 14.4182 61.8453 14.3313C61.7586 14.2443 61.71 14.1264 61.71 14.0035V11.6052C61.71 11.4822 61.7586 11.3643 61.8453 11.2774C61.932 11.1904 62.0495 11.1416 62.1721 11.1416C62.2947 11.1416 62.4122 11.1904 62.4989 11.2774C62.5856 11.3643 62.6342 11.4822 62.6342 11.6052V14.0035C62.6342 14.1264 62.5856 14.2443 62.4989 14.3313C62.4122 14.4182 62.2947 14.4671 62.1721 14.4671Z" fill="black"/>
<path d="M62.1721 20.052C62.0495 20.052 61.932 20.0032 61.8453 19.9162C61.7586 19.8293 61.71 19.7114 61.71 19.5884V17.1901C61.71 17.0672 61.7586 16.9493 61.8453 16.8623C61.932 16.7754 62.0495 16.7266 62.1721 16.7266C62.2947 16.7266 62.4122 16.7754 62.4989 16.8623C62.5856 16.9493 62.6342 17.0672 62.6342 17.1901V19.5884C62.6342 19.7114 62.5856 19.8293 62.4989 19.9162C62.4122 20.0032 62.2947 20.052 62.1721 20.052Z" fill="black"/>
<path d="M60.5813 16.059H58.1936C58.071 16.059 57.9535 16.0101 57.8668 15.9232C57.7801 15.8363 57.7314 15.7184 57.7314 15.5954C57.7314 15.4725 57.7801 15.3546 57.8668 15.2676C57.9535 15.1807 58.071 15.1318 58.1936 15.1318H60.5813C60.7038 15.1318 60.8214 15.1807 60.9081 15.2676C60.9947 15.3546 61.0434 15.4725 61.0434 15.5954C61.0434 15.7184 60.9947 15.8363 60.9081 15.9232C60.8214 16.0101 60.7038 16.059 60.5813 16.059Z" fill="black"/>
<path d="M66.1486 16.059H63.761C63.6384 16.059 63.5208 16.0101 63.4342 15.9232C63.3475 15.8363 63.2988 15.7184 63.2988 15.5954C63.2988 15.4725 63.3475 15.3546 63.4342 15.2676C63.5208 15.1807 63.6384 15.1318 63.761 15.1318H66.1486C66.2712 15.1318 66.3888 15.1807 66.4754 15.2676C66.5621 15.3546 66.6108 15.4725 66.6108 15.5954C66.6108 15.7184 66.5621 15.8363 66.4754 15.9232C66.3888 16.0101 66.2712 16.059 66.1486 16.059Z" fill="black"/>
<path d="M21.0975 12.0159C23.7131 9.17567 27.6043 8.57609 30.5249 9.37655C34.222 10.3903 36.0921 13.6014 37.4076 15.8667C39.7306 19.869 38.6091 21.3185 40.4361 23.6426C43.6741 27.7593 51.5272 25.0334 55.3505 28.1981C64.5377 35.7947 59.5282 48.3548 51.3855 54.2856C45.957 58.2385 38.5691 55.9514 36.5573 55.3302C30.4572 53.4419 20.3519 49.7425 19.3722 40.9065C18.716 34.9665 24.7606 30.2039 21.5134 25.2528C20.6847 23.9919 20.0007 23.6488 19.3845 22.0726C18.3894 19.5136 18.1645 15.1992 21.0975 12.0159Z" fill="black"/>
<path d="M30.6456 12.7147C29.2561 11.5836 30.1372 8.24886 31.0245 6.45015C31.3603 5.77331 32.8515 2.74146 34.814 2.87436C36.8289 2.99489 38.7575 6.38833 38.0366 9.07404C37.14 12.4366 32.2877 14.0406 30.6456 12.7147Z" fill="black"/>
<path d="M40.0333 33.196C35.8403 31.8237 29.4505 30.8379 21.8162 33.2794C20.453 33.7189 19.2447 34.5427 18.3356 35.6525C17.4265 36.7622 16.8551 38.1111 16.6896 39.5378L10.4693 75.4656C10.1612 78.0772 13.6426 80.6176 16.095 81.551C18.6552 82.5245 22.5278 83.4455 28.0087 83.4455C33.887 83.4455 40.9853 83.4115 43.3668 82.3638L43.5825 82.2649C45.0777 81.5553 46.3188 80.4009 47.1368 78.9588C47.9549 77.5166 48.3102 75.8566 48.1545 74.2047L46.8883 68.9229C45.49 63.0992 44.8419 57.1196 44.9596 51.1305L45.166 40.6782C45.2444 39.0395 44.7848 37.4202 43.8576 36.0687C42.9305 34.7172 41.5871 33.708 40.0333 33.196Z" fill="#2090FB" fill-opacity="0.49"/>
<path d="M10.6602 48.6329C10.6602 48.6329 15.6234 34.8366 21.1967 33.5107L18.3654 53.0586L10.6602 48.6329Z" fill="#2090FB" fill-opacity="0.13"/>
<path d="M52.3586 56.6843C53.3978 55.8596 54.1682 54.7428 54.5716 53.4766C54.9749 52.2105 54.9929 50.8524 54.623 49.576C53.9422 47.2272 53.0826 44.3962 52.334 42.3472C49.7707 35.344 44.4593 33.777 42.3889 33.2825C42.0623 33.2022 38.3838 32.7139 38.3838 32.7139L40.6051 54.1377L50.0695 58.0256L52.3586 56.6843Z" fill="#2090FB" fill-opacity="0.13"/>
<path d="M45.6495 73.8277C45.5652 73.8279 45.4825 73.805 45.4103 73.7614C45.338 73.7178 45.2791 73.6552 45.2397 73.5805C41.0436 65.5882 28.2303 65.2699 22.6847 66.3701C19.1695 67.0655 15.5248 69.4205 15.4878 69.4607C15.3849 69.5275 15.2597 69.5506 15.1398 69.5248C15.0199 69.499 14.9151 69.4265 14.8486 69.3232C14.782 69.2199 14.759 69.0943 14.7847 68.9741C14.8104 68.8538 14.8827 68.7487 14.9857 68.6819C15.1397 68.583 18.8182 66.2094 22.506 65.477C27.0904 64.5683 41.2623 64.0306 46.0562 73.1632C46.0942 73.2336 46.1133 73.3127 46.1115 73.3927C46.1098 73.4728 46.0873 73.5509 46.0462 73.6196C46.0052 73.6882 45.947 73.7449 45.8774 73.7841C45.8078 73.8234 45.7293 73.8437 45.6495 73.8432V73.8277Z" fill="black"/>
<path d="M30.3255 59.9051L5.94042 59.8681C5.6404 59.8667 5.34939 59.7651 5.11338 59.5792C4.87737 59.3934 4.70983 59.134 4.63722 58.842L0.499622 41.5812C0.451084 41.3825 0.448182 41.1753 0.491141 40.9753C0.534101 40.7753 0.621802 40.5877 0.747611 40.4266C0.87342 40.2656 1.03404 40.1354 1.21737 40.0457C1.40071 39.9561 1.60195 39.9094 1.80591 39.9092L26.194 39.9463C26.4943 39.9466 26.7859 40.0478 27.0221 40.2338C27.2583 40.4198 27.4256 40.6798 27.4972 40.9723L31.6348 58.2331C31.6834 58.4321 31.6863 58.6396 31.6432 58.8398C31.6 59.04 31.5121 59.2278 31.3859 59.3889C31.2597 59.55 31.0987 59.6802 30.915 59.7696C30.7313 59.8591 30.5297 59.9054 30.3255 59.9051Z" fill="#2090FB"/>
<path d="M30.3279 60.3675L5.94288 60.3304C5.53884 60.3297 5.14667 60.1933 4.82895 59.9429C4.51122 59.6925 4.28624 59.3426 4.18987 58.9489L0.052279 41.6881C-0.0131923 41.4212 -0.0172224 41.1428 0.0404888 40.874C0.0982001 40.6053 0.216144 40.3532 0.385374 40.137C0.554605 39.9208 0.770679 39.746 1.01723 39.626C1.26378 39.506 1.53433 39.4439 1.80837 39.4443L26.1934 39.4814C26.5969 39.4811 26.9888 39.6168 27.3062 39.8667C27.6236 40.1167 27.848 40.4665 27.9433 40.8598L32.0809 58.1238C32.1457 58.3904 32.1493 58.6683 32.0915 58.9366C32.0337 59.2048 31.916 59.4564 31.7473 59.6724C31.5785 59.8884 31.3631 60.0632 31.1172 60.1836C30.8714 60.304 30.6015 60.3669 30.3279 60.3675ZM30.3279 59.4403C30.4616 59.44 30.5935 59.4091 30.7136 59.3502C30.8338 59.2913 30.939 59.2058 31.0215 59.1002C31.1039 58.9946 31.1614 58.8716 31.1896 58.7405C31.2179 58.6093 31.216 58.4735 31.1844 58.3432L27.0499 41.0792C27.0019 40.8878 26.8915 40.7179 26.7364 40.5964C26.5813 40.4749 26.3902 40.4088 26.1934 40.4086L1.80529 40.3684C1.67137 40.3682 1.53916 40.3986 1.41871 40.4574C1.29827 40.5161 1.19275 40.6016 1.11018 40.7074C1.02761 40.8131 0.970163 40.9364 0.942201 41.0678C0.914239 41.1991 0.91651 41.3352 0.94882 41.4656L5.08641 58.7264C5.13321 58.9182 5.24267 59.0887 5.39734 59.2108C5.55201 59.333 5.74297 59.3996 5.9398 59.4002L30.3279 59.4403Z" fill="black"/>
<path d="M13.9253 50.2308C14.0294 50.5671 14.2292 50.8656 14.5 51.0897C14.7709 51.3137 15.1011 51.4535 15.45 51.4919C15.799 51.5303 16.1515 51.4656 16.4644 51.3058C16.7772 51.146 17.0367 50.898 17.211 50.5924C17.3853 50.2867 17.4668 49.9366 17.4456 49.5851C17.4243 49.2336 17.3011 48.896 17.0912 48.6137C16.8813 48.3314 16.5938 48.1168 16.264 47.9961C15.9342 47.8755 15.5765 47.8541 15.2347 47.9346C14.7579 48.0654 14.3522 48.3807 14.1067 48.8111C13.8613 49.2416 13.796 49.7522 13.9253 50.2308Z" fill="white"/>
<path d="M1.92755 48.1517L2.23563 49.3879C2.26624 49.511 2.32374 49.6258 2.40399 49.7239C2.48423 49.822 2.58522 49.9009 2.69962 49.9551C2.81403 50.0092 2.939 50.0371 3.06549 50.0369C3.19199 50.0366 3.31683 50.0081 3.43101 49.9535L7.55626 47.991C7.68539 47.9293 7.8261 47.8959 7.96908 47.8928C8.11206 47.8898 8.25404 47.9172 8.38567 47.9733C8.5173 48.0293 8.63556 48.1128 8.73264 48.2182C8.82972 48.3235 8.9034 48.4483 8.94881 48.5844C9.33392 49.7619 9.01044 51.8573 3.75758 53.9929C0.547326 55.2971 0.433326 51.7615 0.957071 49.6074C1.10576 49.0254 1.44816 48.5118 1.92755 48.1517Z" fill="white"/>
<path d="M2.51433 54.7405C2.02963 54.7527 1.55762 54.5843 1.18956 54.2676C0.0681299 53.2972 0.123579 51.0936 0.508686 49.4989C0.686853 48.8064 1.09557 48.1957 1.66709 47.7682C1.7285 47.7261 1.79912 47.6995 1.87296 47.6907C1.9468 47.6818 2.02168 47.691 2.09124 47.7174C2.16079 47.7438 2.22297 47.7866 2.27249 47.8423C2.32201 47.8979 2.35741 47.9647 2.37569 48.0371L2.68377 49.2733C2.69843 49.3294 2.72502 49.3816 2.76171 49.4265C2.79841 49.4713 2.84434 49.5076 2.89635 49.5329C2.94822 49.5581 3.00511 49.5711 3.06273 49.5711C3.12035 49.5711 3.17722 49.5581 3.22909 49.5329L7.35436 47.5704C7.54439 47.4815 7.7509 47.4337 7.96053 47.4299C8.17016 47.4262 8.37826 47.4667 8.57131 47.5487C8.76193 47.6309 8.933 47.7528 9.0732 47.9062C9.21341 48.0597 9.31955 48.2412 9.38464 48.4388C9.88374 49.9532 9.34152 52.2217 3.92845 54.4222C3.48143 54.6172 3.00154 54.7252 2.51433 54.7405ZM1.68558 49.0848C1.55855 49.2734 1.46477 49.4824 1.40831 49.7029C1.05709 51.1462 1.07866 52.9294 1.79342 53.5506C2.17236 53.8782 2.77621 53.8782 3.5834 53.5506C7.28043 52.0455 9.03959 50.3303 8.51277 48.717C8.48636 48.6464 8.4452 48.5823 8.39207 48.529C8.33893 48.4757 8.27504 48.4344 8.20468 48.4079C8.13335 48.3743 8.05551 48.3569 7.9767 48.3569C7.89789 48.3569 7.82003 48.3743 7.7487 48.4079L3.63576 50.3766C3.45952 50.4619 3.26653 50.5067 3.07085 50.5076C2.87518 50.5086 2.68175 50.4658 2.50466 50.3823C2.32757 50.2988 2.17129 50.1768 2.04718 50.025C1.92307 49.8733 1.83427 49.6956 1.78725 49.5051L1.68558 49.0848Z" fill="black"/>
<path d="M37.5246 42.8598C37.5246 42.8598 48.4771 49.0409 50.7354 50.991C52.9937 52.9412 55.4429 54.3907 52.2512 58.6402C49.5369 62.2376 44.7554 59.0203 36.3293 46.896C35.9089 46.3382 35.2976 45.9562 34.6132 45.8236C33.7691 45.6351 32.5398 44.9645 31.976 42.7331C31.976 42.7331 27.9709 43.3017 27.6289 41.3485L33.6273 40.3904C34.0235 40.32 34.4308 40.348 34.8137 40.4719C35.1967 40.5958 35.5435 40.8119 35.824 41.1012L37.5246 42.8598Z" fill="white"/>
<path d="M49.759 60.4915H49.6881C46.6073 60.4297 42.2294 56.1956 35.9506 47.1619C35.5993 46.6972 35.0869 46.3818 34.5149 46.278C33.7231 46.0988 32.3336 45.4652 31.6405 43.2431C30.5036 43.3482 27.5367 43.4223 27.1763 41.4382C27.1653 41.3771 27.1667 41.3144 27.1804 41.2538C27.1942 41.1933 27.22 41.1361 27.2564 41.0859C27.2921 41.0349 27.3379 40.9919 27.3909 40.9595C27.4439 40.927 27.503 40.9059 27.5645 40.8973L33.566 39.9393C34.0351 39.856 34.5175 39.8893 34.9708 40.0364C35.4241 40.1835 35.8346 40.4399 36.1662 40.783L37.8207 42.489C38.7757 43.0298 48.8409 48.7412 51.0468 50.6388L51.5675 51.0777C53.6686 52.8393 55.8406 54.6627 52.6273 58.9215C51.8355 59.9631 50.8712 60.4915 49.759 60.4915ZM31.9793 42.2757C32.0819 42.276 32.1814 42.3104 32.2623 42.3736C32.3432 42.4369 32.4008 42.5253 32.4261 42.625C32.9252 44.5813 33.948 45.1994 34.7182 45.3725C35.5159 45.5274 36.227 45.9761 36.7115 46.6303C42.7223 55.2839 46.9739 59.5118 49.7066 59.5644C50.5446 59.5829 51.2624 59.1873 51.8848 58.359C54.5651 54.808 53.0555 53.5409 50.9605 51.7916L50.4337 51.3435C48.234 49.452 37.4047 43.3265 37.2969 43.2647C37.2581 43.2421 37.2229 43.214 37.1922 43.1813L35.4915 41.4289C35.2635 41.1945 34.9817 41.0195 34.6708 40.9193C34.3599 40.8191 34.0292 40.7967 33.7077 40.8541L28.307 41.7163C29.0186 42.4797 31.1136 42.3932 31.9085 42.2788L31.9793 42.2757Z" fill="black"/>
<path d="M26.2925 26.5796C26.0028 26.7192 25.6769 26.7645 25.3604 26.7091C25.0438 26.6536 24.7525 26.5003 24.5271 26.2705C24.031 25.7695 23.5956 25.2114 23.2301 24.6078H22.5615C22.4588 24.6103 22.3592 24.5722 22.2842 24.5016C22.2093 24.4311 22.165 24.3338 22.161 24.2308L22.0439 21.6099C21.6255 20.9699 21.3617 20.2408 21.2737 19.4805C21.1936 18.5039 22.0593 16.7547 22.9374 16.3251C24.1235 15.744 26.2647 15.4288 27.3831 17.1163C27.8637 17.8425 28.6432 18.3525 29.1176 18.2783C29.5921 18.2041 29.7338 17.8178 29.9618 17.4222C30.3715 16.6836 31.3882 15.9944 32.3649 17.1564C33.3415 18.3185 32.6729 19.4218 32.0568 20.3243C31.8103 20.692 32.0753 21.7027 32.1769 22.1353L33.6249 28.3165C33.8071 29.0997 34.1778 29.8261 34.7047 30.4323C35.2316 31.0384 35.8986 31.5057 36.6473 31.7934L38.1877 32.3898C38.1877 32.3898 36.4778 37.5944 29.626 37.446C24.3885 37.3348 24.7982 33.0327 24.7982 33.0327L25.4853 32.7236C26.3572 32.3384 27.0684 31.6607 27.4967 30.807C27.9251 29.9532 28.0439 28.9766 27.8329 28.0445L27.3738 26.0047L26.2925 26.5796Z" fill="white"/>
<path d="M29.915 37.9405H29.6223C27.7738 37.9003 26.3659 37.3563 25.4478 36.3241C24.6701 35.4061 24.2751 34.2229 24.3448 33.0203C24.3525 32.9377 24.3819 32.8587 24.4301 32.7913C24.4783 32.724 24.5435 32.6707 24.619 32.637L25.303 32.328C26.0764 31.985 26.7071 31.3834 27.0875 30.6259C27.4679 29.8683 27.5743 29.0018 27.3887 28.1743L27.0498 26.7155L26.4922 26.9937C26.1171 27.1819 25.6923 27.2466 25.2785 27.1783C24.8647 27.1101 24.4829 26.9124 24.1877 26.6135C23.7262 26.1491 23.3133 25.6386 22.9553 25.0899H22.5487H22.5302C22.3097 25.0916 22.0971 25.007 21.9378 24.8541C21.7784 24.7012 21.6848 24.4919 21.6768 24.2709L21.5659 21.7644C21.143 21.0901 20.8786 20.3281 20.7926 19.5361C20.7001 18.4143 21.6152 16.4641 22.7119 15.9263C24.314 15.1413 26.5723 15.1073 27.7461 16.8782C28.1836 17.5365 28.8121 17.8672 29.0154 17.8394C29.2187 17.8116 29.2958 17.6571 29.496 17.2924L29.5361 17.2151C29.6876 16.9207 29.906 16.6661 30.1735 16.4718C30.4411 16.2775 30.7504 16.1489 31.0765 16.0963C31.4801 16.0562 32.0901 16.1612 32.6878 16.8782C33.9201 18.3586 32.9774 19.7648 32.4074 20.6055C32.3612 20.6982 32.3489 21.0134 32.5707 21.9437L32.5954 22.0457L34.0434 28.2268C34.2092 28.936 34.5455 29.5937 35.0229 30.1427C35.5003 30.6916 36.1043 31.1151 36.7823 31.3761L38.3227 31.9726C38.4336 32.015 38.5238 32.099 38.5744 32.2067C38.6249 32.3145 38.6319 32.4377 38.5938 32.5505C38.6154 32.6154 36.7853 37.9405 29.915 37.9405ZM25.2598 33.3633C25.2772 34.2248 25.5894 35.0542 26.144 35.7121C26.8865 36.5404 28.0634 36.9762 29.6408 37.0102C35.0169 37.1369 37.0349 33.8578 37.5864 32.6834L36.4803 32.2569C35.661 31.9429 34.931 31.4322 34.3541 30.7695C33.7772 30.1068 33.3712 29.3122 33.1715 28.4555L31.6988 22.1724C31.5109 21.3781 31.3538 20.5653 31.6711 20.0955C32.3335 19.1189 32.7432 18.3617 32.01 17.4871C31.9212 17.3495 31.8 17.2361 31.657 17.1568C31.5141 17.0776 31.3538 17.035 31.1905 17.0328C31.0137 17.0712 30.8478 17.1492 30.7053 17.2611C30.5629 17.373 30.4475 17.5157 30.3679 17.6787L30.3248 17.7529C30.106 18.1546 29.8318 18.6522 29.1972 18.7666C28.4424 18.8964 27.5027 18.1485 26.9974 17.4067C25.9992 15.8985 24.0367 16.3312 23.1371 16.7732C22.4655 17.1008 21.6675 18.6275 21.7353 19.4712C21.8154 20.1571 22.0527 20.815 22.4285 21.3935C22.469 21.461 22.4923 21.5374 22.4963 21.6161L22.6103 24.172H23.2265C23.3073 24.1704 23.387 24.1902 23.4578 24.2292C23.5287 24.2683 23.5881 24.3252 23.6301 24.3945C23.9778 24.9665 24.3915 25.4955 24.8624 25.9707C25.0194 26.1317 25.2234 26.2386 25.4449 26.2758C25.6664 26.313 25.894 26.2787 26.0947 26.1778L27.1792 25.6338C27.2416 25.6014 27.3107 25.5837 27.381 25.5823C27.4513 25.5809 27.521 25.5956 27.5847 25.6255C27.6484 25.6554 27.7045 25.6995 27.7485 25.7545C27.7925 25.8096 27.8233 25.874 27.8385 25.9429L28.2976 27.9826C28.5305 29.0195 28.3977 30.1053 27.9219 31.0549C27.446 32.0046 26.6565 32.7592 25.6881 33.1903L25.2598 33.3633Z" fill="black"/>
<path d="M26.6491 134.369L30.2814 145.236C30.2814 145.236 26.3256 144.899 25.9467 144.973C25.5677 145.047 20.9434 135.061 20.9434 135.061L26.6491 134.369Z" fill="white"/>
<path d="M30.2818 145.699H30.2417C28.3932 145.538 26.3013 145.39 26.0271 145.43C25.5988 145.513 25.4509 145.541 22.8876 140.247C21.6953 137.775 20.5369 135.281 20.5246 135.256C20.4911 135.191 20.4736 135.119 20.4736 135.046C20.4736 134.973 20.4911 134.9 20.5246 134.835C20.5595 134.771 20.6093 134.716 20.6699 134.675C20.7306 134.634 20.8001 134.609 20.8728 134.601L26.5785 133.908C26.6837 133.894 26.7905 133.917 26.8805 133.974C26.9704 134.03 27.038 134.116 27.0715 134.217L30.7038 145.087C30.7281 145.16 30.7341 145.237 30.7211 145.313C30.7082 145.388 30.6769 145.459 30.6299 145.52C30.5888 145.574 30.5362 145.618 30.476 145.649C30.4157 145.68 30.3494 145.697 30.2818 145.699ZM26.1595 144.503C26.862 144.503 28.4794 144.623 29.6194 144.716L26.3321 134.873L21.6306 135.444C23.4976 139.462 25.568 143.699 26.1287 144.503H26.1595ZM25.9007 144.503H25.8607H25.9007Z" fill="black"/>
<path d="M29.4501 142.85C29.4501 142.85 23.9877 140.603 22.9802 143.421C21.6955 147.006 19.6868 152.477 19.6868 152.477C19.6094 152.699 19.5837 152.936 19.6114 153.169C19.6391 153.403 19.7196 153.627 19.8468 153.825C19.974 154.022 20.1445 154.188 20.3453 154.31C20.546 154.431 20.7718 154.505 21.0054 154.526C23.0018 154.686 25.9779 154.816 27.3643 154.328C29.5548 153.558 33.1872 146.602 33.1872 146.602L32.0657 140.689C32.0657 140.689 30.0847 140.411 29.4501 142.85Z" fill="#2090FB" fill-opacity="0.13"/>
<path d="M19.8378 152.065L19.6868 152.476C19.6094 152.699 19.5837 152.935 19.6114 153.169C19.6391 153.403 19.7196 153.627 19.8468 153.824C19.974 154.022 20.1445 154.188 20.3453 154.309C20.546 154.431 20.7718 154.505 21.0054 154.526C23.0018 154.686 25.9779 154.816 27.3643 154.328C28.076 154.077 28.9417 153.172 29.7828 152.065H19.8378Z" fill="white"/>
<path d="M24.2128 155.135C23.1222 155.135 21.9699 155.067 20.9687 154.986C20.6634 154.962 20.3678 154.868 20.1049 154.71C19.842 154.553 19.6189 154.337 19.4528 154.079C19.2868 153.821 19.1823 153.528 19.1476 153.222C19.1129 152.917 19.1488 152.608 19.2526 152.319C19.2742 152.26 21.2737 146.806 22.543 143.264C22.6527 142.949 22.827 142.66 23.0546 142.416C23.2822 142.172 23.5581 141.979 23.8647 141.848C25.5191 141.113 28.1039 141.873 29.1576 142.244C29.8477 140.433 31.3696 140.124 32.1306 140.232C32.2265 140.246 32.3158 140.289 32.3859 140.356C32.4561 140.423 32.5036 140.511 32.5219 140.606L33.6402 146.518C33.6602 146.623 33.645 146.732 33.5971 146.827C33.2151 147.557 29.8138 153.963 27.5186 154.77C26.7422 155.03 25.5098 155.135 24.2128 155.135ZM25.5684 142.463C25.114 142.449 24.6617 142.53 24.2405 142.701C24.0468 142.782 23.8726 142.903 23.7301 143.057C23.5875 143.211 23.48 143.395 23.4149 143.595C22.1425 147.139 20.1399 152.597 20.1214 152.653C20.0667 152.805 20.048 152.968 20.0667 153.129C20.0854 153.29 20.1411 153.444 20.2293 153.58C20.3177 153.719 20.4373 153.836 20.5785 153.921C20.7197 154.005 20.8785 154.056 21.0426 154.068C24.0218 154.31 26.2123 154.248 27.2043 153.895C28.8187 153.33 31.6438 148.527 32.6975 146.54L31.6716 141.15C31.1786 141.199 30.2698 141.493 29.8847 142.964C29.8692 143.03 29.8396 143.092 29.7982 143.145C29.7567 143.198 29.7042 143.242 29.6443 143.273C29.5844 143.301 29.5193 143.315 29.4533 143.315C29.3874 143.315 29.3223 143.301 29.2623 143.273C29.25 143.267 27.2567 142.46 25.5684 142.46V142.463Z" fill="black"/>
<path d="M36.9466 137.039L35.7143 147.974L30.751 146.608L31.133 136.755L36.9466 137.039Z" fill="white"/>
<path d="M35.7129 148.434C35.672 148.44 35.6305 148.44 35.5897 148.434L30.6264 147.068C30.5259 147.04 30.4376 146.98 30.376 146.895C30.3144 146.811 30.2832 146.708 30.2875 146.604L30.6695 136.751C30.6788 136.633 30.7328 136.522 30.8205 136.442C30.9116 136.36 31.0309 136.317 31.1532 136.322L36.9699 136.606C37.0331 136.609 37.095 136.625 37.1517 136.654C37.2084 136.682 37.2587 136.721 37.2996 136.77C37.3407 136.818 37.3713 136.874 37.3893 136.935C37.4074 136.995 37.4125 137.059 37.4043 137.122L36.172 148.053C36.1643 148.12 36.1425 148.185 36.1079 148.242C36.0734 148.3 36.0269 148.349 35.9717 148.387C35.8918 148.428 35.8018 148.444 35.7129 148.434ZM31.2241 146.27L35.3155 147.395L36.4308 137.505L31.5753 137.267L31.2241 146.27Z" fill="black"/>
<path d="M36.1818 156.028H28.3287C28.0783 156.028 27.8309 155.974 27.6033 155.87C27.3756 155.765 27.1731 155.613 27.0094 155.423C26.8457 155.233 26.7247 155.01 26.6546 154.769C26.5846 154.528 26.5671 154.274 26.6034 154.026C26.8683 152.246 27.7217 149.297 30.2819 145.236C30.4208 145.019 30.6117 144.84 30.8372 144.716C31.0627 144.592 31.3156 144.526 31.5728 144.525H33.9605C34.1596 144.525 34.3517 144.599 34.4996 144.732C34.6476 144.866 34.7409 145.05 34.7615 145.249L34.9402 146.976L35.6642 146.231C35.7294 146.165 35.8106 146.116 35.9 146.089C35.9893 146.063 36.084 146.06 36.1748 146.081C36.2656 146.102 36.3496 146.145 36.4188 146.208C36.488 146.271 36.54 146.35 36.57 146.438C37.3921 148.963 37.8476 151.593 37.9225 154.248C37.9266 154.48 37.8846 154.711 37.799 154.926C37.7134 155.142 37.5859 155.338 37.4239 155.504C37.2618 155.67 37.0686 155.801 36.8553 155.892C36.6421 155.982 36.4132 156.028 36.1818 156.028Z" fill="#2090FB" fill-opacity="0.13"/>
<path d="M28.3287 156.027H36.1818C36.4132 156.026 36.6421 155.98 36.8553 155.89C37.0686 155.8 37.2618 155.668 37.4239 155.502C37.5859 155.337 37.7134 155.14 37.799 154.925C37.8846 154.709 37.9266 154.479 37.9225 154.247C37.9225 154.002 37.9225 153.764 37.8978 153.523H26.6896C26.6588 153.7 26.628 153.87 26.6034 154.024C26.5671 154.273 26.5846 154.526 26.6546 154.767C26.7247 155.008 26.8457 155.231 27.0094 155.421C27.1731 155.611 27.3756 155.764 27.6033 155.868C27.8309 155.973 28.0783 156.027 28.3287 156.027Z" fill="white"/>
<path d="M36.1813 156.49H28.3282C28.0114 156.491 27.6982 156.423 27.4101 156.29C27.1219 156.158 26.8656 155.965 26.6585 155.725C26.4515 155.484 26.2986 155.202 26.2103 154.897C26.122 154.591 26.1004 154.271 26.1469 153.956C26.415 152.151 27.2807 149.129 29.8902 144.994C30.069 144.709 30.3173 144.474 30.6116 144.312C30.9059 144.149 31.2365 144.065 31.5723 144.066H33.96C34.2732 144.066 34.5756 144.181 34.8084 144.392C35.0413 144.602 35.188 144.891 35.2201 145.204L35.2971 145.949L35.3341 145.911C35.4542 145.787 35.6046 145.696 35.7704 145.647C35.9361 145.598 36.1117 145.594 36.2799 145.633C36.4487 145.671 36.6047 145.753 36.7322 145.87C36.8598 145.987 36.9545 146.136 37.007 146.301C37.8477 148.867 38.3116 151.543 38.3841 154.244C38.3898 154.537 38.3371 154.829 38.229 155.103C38.1208 155.376 37.9595 155.624 37.7544 155.834C37.5493 156.044 37.3045 156.211 37.0344 156.324C36.7643 156.438 36.4742 156.497 36.1813 156.497V156.49ZM31.56 144.987C31.3804 144.987 31.2036 145.033 31.0463 145.12C30.889 145.207 30.7562 145.333 30.6604 145.485C28.1341 149.503 27.3023 152.374 27.0496 154.092C27.0238 154.275 27.0379 154.462 27.0911 154.639C27.1443 154.816 27.2353 154.98 27.3577 155.118C27.4784 155.258 27.6274 155.37 27.7948 155.446C27.9622 155.523 28.1441 155.563 28.3282 155.563H36.1813C36.3533 155.564 36.5238 155.531 36.6826 155.464C36.8414 155.398 36.9852 155.3 37.1056 155.177C37.2255 155.055 37.3195 154.91 37.382 154.751C37.4445 154.591 37.4741 154.421 37.4691 154.25C37.3977 151.641 36.9494 149.056 36.1382 146.576C36.1346 146.563 36.1275 146.551 36.1177 146.542C36.1079 146.533 36.0958 146.526 36.0827 146.523C36.0689 146.519 36.0541 146.519 36.0403 146.524C36.0266 146.528 36.0145 146.537 36.0057 146.548L35.2724 147.302C35.2106 147.365 35.1325 147.409 35.047 147.429C34.9614 147.449 34.8719 147.445 34.7887 147.417C34.7056 147.388 34.6324 147.336 34.5778 147.267C34.5232 147.198 34.4895 147.115 34.4807 147.027L34.302 145.296C34.2929 145.212 34.2529 145.133 34.1899 145.076C34.1268 145.019 34.0449 144.988 33.96 144.987H31.56Z" fill="black"/>
<path d="M18.3064 71.3773C18.4078 71.1286 18.5624 70.9052 18.7594 70.7231C18.9564 70.541 19.1909 70.4045 19.4463 70.3234C23.3232 69.1671 27.4038 68.8675 31.4071 69.4453C35.4105 70.0231 39.2414 71.4646 42.636 73.6705C42.876 73.8246 43.0768 74.0328 43.2223 74.2786C43.3678 74.5244 43.454 74.8009 43.474 75.086C43.8468 80.34 45.2362 107.806 36.5759 140.328L30.7469 139.911L29.5577 84.3052C29.5577 84.3052 20.9313 104.703 27.9434 137.132L21.8741 138.257C21.8741 138.257 12.9919 126.541 11.3991 108.643C9.99117 92.8073 16.7321 75.2251 18.3064 71.3773Z" fill="black"/>
<path d="M29.0426 89.8682C28.9819 89.8666 28.9222 89.853 28.8667 89.8282C28.8112 89.8034 28.7612 89.7679 28.7194 89.7237C28.6777 89.6795 28.645 89.6275 28.6232 89.5706C28.6015 89.5137 28.5912 89.4531 28.5928 89.3922L28.75 84.1104C28.764 83.6727 28.6691 83.2383 28.4739 82.8466C28.2786 82.4548 27.9891 82.1181 27.6316 81.8667L25.3579 80.2658C25.2574 80.1949 25.1891 80.0868 25.168 79.9654C25.1469 79.844 25.1748 79.7191 25.2455 79.6183C25.3161 79.5175 25.4238 79.449 25.5449 79.4278C25.6659 79.4066 25.7904 79.4346 25.8909 79.5055L28.1615 81.1095C28.6444 81.4488 29.0355 81.9033 29.2996 82.432C29.5637 82.9608 29.6924 83.5471 29.6742 84.1383L29.514 89.4169C29.5108 89.5394 29.4594 89.6555 29.3711 89.7401C29.2828 89.8246 29.1647 89.8706 29.0426 89.8682Z" fill="#DBEDFF"/>
</svg>
