<svg width="11" height="11" viewBox="0 0 11 11" fill="none" xmlns="http://www.w3.org/2000/svg">
<path d="M5.49977 6.02984C5.90036 6.03052 6.29215 5.91235 6.62556 5.69029C6.95897 5.46823 7.21901 5.15226 7.37278 4.78235C7.52655 4.41245 7.56714 4.00525 7.48941 3.61227C7.41167 3.21929 7.21911 2.85821 6.93609 2.5747C6.65307 2.2912 6.29231 2.09803 5.89947 2.01963C5.50662 1.94122 5.09935 1.98112 4.72918 2.13426C4.35902 2.2874 4.0426 2.54691 3.81998 2.87994C3.59735 3.21297 3.47852 3.60456 3.47852 4.00515C3.47851 4.54154 3.69136 5.05601 4.07032 5.43561C4.44928 5.81521 4.96338 6.02893 5.49977 6.02984ZM5.49977 2.6714C5.76356 2.6714 6.02142 2.74963 6.24076 2.89618C6.46009 3.04274 6.63104 3.25104 6.73199 3.49475C6.83294 3.73846 6.85935 4.00663 6.80789 4.26536C6.75642 4.52408 6.6294 4.76173 6.44287 4.94826C6.25634 5.13479 6.01869 5.26181 5.75997 5.31328C5.50125 5.36474 5.23307 5.33833 4.98936 5.23738C4.74565 5.13643 4.53735 4.96548 4.39079 4.74615C4.24424 4.52681 4.16602 4.26894 4.16602 4.00515C4.16692 3.6517 4.30773 3.31298 4.55766 3.06305C4.80759 2.81312 5.14631 2.67231 5.49977 2.6714Z" fill="#2090FB"/>
<path d="M10.3125 1.49876L8.9066 0.0996932C8.87448 0.067834 8.83639 0.0426285 8.79451 0.0255219C8.75263 0.0084153 8.70778 -0.000255811 8.66254 5.74554e-06H0.938477C0.847308 5.74554e-06 0.759874 0.0362222 0.695409 0.100688C0.630943 0.165153 0.594727 0.252588 0.594727 0.343756V10.6563C0.594727 10.7474 0.630943 10.8349 0.695409 10.8993C0.759874 10.9638 0.847308 11 0.938477 11H10.0616C10.1528 11 10.2402 10.9638 10.3047 10.8993C10.3691 10.8349 10.4054 10.7474 10.4054 10.6563V1.74282C10.4077 1.65242 10.3744 1.56474 10.3125 1.49876ZM9.71785 10.3125H1.28223V0.687506H8.5216L9.71785 1.88376V10.3125Z" fill="#2090FB"/>
<path d="M6.01562 6.53125H4.98438C4.16386 6.53125 3.37695 6.8572 2.79676 7.43739C2.21657 8.01758 1.89063 8.80449 1.89062 9.625C1.89062 9.71617 1.92684 9.8036 1.99131 9.86807C2.05577 9.93253 2.14321 9.96875 2.23438 9.96875H8.76562C8.85679 9.96875 8.94423 9.93253 9.00869 9.86807C9.07316 9.8036 9.10938 9.71617 9.10938 9.625C9.10938 8.80449 8.78343 8.01758 8.20324 7.43739C7.62305 6.8572 6.83614 6.53125 6.01562 6.53125ZM2.60219 9.28125C2.68486 8.70846 2.97121 8.18465 3.40873 7.80584C3.84626 7.42703 4.40565 7.2186 4.98438 7.21875H6.01562C6.59435 7.2186 7.15374 7.42703 7.59127 7.80584C8.02879 8.18465 8.31514 8.70846 8.39781 9.28125H2.60219Z" fill="#2090FB"/>
</svg>
