<svg width="28" height="31" viewBox="0 0 28 31" fill="none" xmlns="http://www.w3.org/2000/svg">
<path fill-rule="evenodd" clip-rule="evenodd" d="M17.4519 5.16683C15.8973 5.16683 14.6371 6.61258 14.6371 8.396V22.6043C14.6371 25.8145 12.3687 28.4168 9.57041 28.4168C6.77216 28.4168 4.50372 25.8145 4.50372 22.6043V12.9168C4.50372 12.2035 5.00782 11.6252 5.62965 11.6252C6.25149 11.6252 6.75558 12.2035 6.75558 12.9168V22.6043C6.75558 24.3878 8.01583 25.8335 9.57041 25.8335C11.125 25.8335 12.3852 24.3878 12.3852 22.6043V8.396C12.3852 5.18584 14.6537 2.5835 17.4519 2.5835C20.2502 2.5835 22.5186 5.18584 22.5186 8.396V16.7918C22.5186 17.5052 22.0145 18.0835 21.3927 18.0835C20.7708 18.0835 20.2668 17.5052 20.2668 16.7918V8.396C20.2668 6.61258 19.0065 5.16683 17.4519 5.16683Z" fill="white"/>
<path d="M21.2319 19.9287C19.6301 19.9287 18.015 20.1855 18.015 21.9433V26.741C18.015 27.7173 18.6512 28.5157 19.426 28.5157L18.8285 29.2672V29.5239H19.718L20.5197 28.5157H22.032L22.8336 29.5239H23.6352V29.2672L23.0378 28.5157C23.8141 28.5157 24.4488 27.7155 24.4488 26.741V21.9433C24.4488 20.1855 23.0124 19.9287 21.2319 19.9287ZM19.426 27.5093C19.0952 27.5093 18.8285 27.1739 18.8285 26.7578C18.8285 26.3418 19.0952 26.0063 19.426 26.0063C19.7568 26.0063 20.0235 26.3418 20.0235 26.7578C20.0235 27.1739 19.7568 27.5093 19.426 27.5093ZM20.8251 23.9748H18.8285V21.9433H20.837V23.9748H20.8251ZM21.6386 23.9748V21.9433H23.6472V23.958H21.6386V23.9748ZM23.0378 27.5093C22.707 27.5093 22.4403 27.1739 22.4403 26.7578C22.4403 26.3418 22.707 26.0063 23.0378 26.0063C23.3685 26.0063 23.6352 26.3418 23.6352 26.7578C23.6352 27.1739 23.3685 27.5093 23.0378 27.5093Z" fill="white"/>
<path d="M1.34797 2.70528C1.89729 2.03517 2.44661 2.05121 2.99584 2.75342C3.46028 3.34713 4.18502 3.33059 4.65205 2.74058C5.20748 2.03899 5.76291 2.03899 6.31835 2.74058C6.78537 3.33059 7.51012 3.34713 7.97455 2.75342C8.52388 2.05109 9.0732 2.03504 9.62243 2.70528C9.64048 2.72725 9.65094 2.75922 9.65094 2.79168V4.25546C9.09551 3.55387 8.54017 3.68002 7.98474 4.38149C7.5154 4.97421 6.78908 4.97766 6.32029 4.3842C5.76356 3.67928 5.20674 3.67928 4.65001 4.3842C4.18123 4.97779 3.45491 4.97421 2.98557 4.38149C2.43023 3.68002 1.87489 3.55387 1.31946 4.25546V2.79168C1.31946 2.75922 1.32992 2.72725 1.34797 2.70528Z" fill="white"/>
<path d="M1.31946 5.82603C1.87822 5.12012 2.43708 5.12444 2.99584 5.83887C3.46028 6.43258 4.18502 6.41604 4.65205 5.82603C5.20748 5.12444 5.76291 5.12444 6.31835 5.82603C6.78537 6.41604 7.51012 6.43258 7.97455 5.83887C8.53332 5.12444 9.09218 5.12012 9.65094 5.82603V7.34091C9.0956 6.63945 8.54026 6.76547 7.98492 7.46681C7.51549 8.05966 6.78908 8.06311 6.3202 7.46953C5.76356 6.76473 5.20683 6.76473 4.6502 7.46953C4.18132 8.06311 3.45491 8.05966 2.98548 7.46681C2.43014 6.76547 1.8748 6.63932 1.31946 7.34091V5.82603Z" fill="white"/>
</svg>
