<svg width="24" height="28" viewBox="0 0 24 28" fill="none" xmlns="http://www.w3.org/2000/svg">
<path fill-rule="evenodd" clip-rule="evenodd" d="M9.23491 10.7165L21.0866 13.1648L12.4057 6.35C12.1894 6.49442 11.9394 6.58919 11.6834 6.61627C11.4116 6.64561 11.1298 6.60273 10.8719 6.47185L2.06196 12.111V26.5283L0.143222 26.1559C0.0717902 26.1424 0.0122637 26.0882 0.0122637 26.007V12.5127C-0.0373417 12.2554 0.0658375 11.9801 0.280133 11.847L10.0961 5.55794C9.96113 5.20366 9.89367 4.7546 9.92541 4.19723L10.8262 4.26041C10.8024 4.67562 10.8501 4.978 10.9413 5.19012C11.0941 5.22397 11.233 5.33002 11.3124 5.49701C11.3243 5.52409 11.3362 5.55117 11.3441 5.57825C11.4156 5.59856 11.491 5.60533 11.5644 5.60081C11.4791 5.409 11.487 5.16981 11.6021 4.98026C11.7092 4.80199 11.8858 4.70947 12.0644 4.71624C12.0327 4.67336 11.9969 4.63951 11.9632 4.60566C11.7271 4.36872 11.4989 4.13855 11.4394 3.38035L11.4374 3.37809L11.4314 3.31039C10.9989 3.11407 10.6913 2.63116 10.6913 2.06928C10.6913 1.51642 10.987 1.04028 11.4096 0.837188V0H12.3124V0.834932C12.739 1.03577 13.0406 1.5119 13.0406 2.07153C13.0406 2.61988 12.7509 3.0915 12.3343 3.29685C12.364 3.64436 12.4593 3.7414 12.5585 3.84069C12.737 4.02121 12.9216 4.20625 13.0446 4.67562C13.1101 4.92835 13.114 5.16981 13.0684 5.3887L23.301 13.4198C23.4062 13.5033 23.4776 13.6207 23.5113 13.7516C23.5272 13.7809 23.5352 13.8147 23.5352 13.8508V24.4861C23.5352 24.6057 23.4459 24.6824 23.3427 24.705L9.23292 27.6385C9.12974 27.6611 9.04045 27.5392 9.04045 27.4196V10.9354C9.04244 10.8158 9.12974 10.6962 9.23491 10.7165ZM2.80803 11.6732L4.99662 11.258V27.0969L2.80803 26.6727V11.6732ZM5.74268 11.1159L8.25272 10.6397C8.32415 10.6262 8.38368 10.7074 8.38368 10.7887V27.5753C8.38368 27.6566 8.32415 27.7378 8.25272 27.7243L5.74268 27.2391V11.1723V11.1159ZM22.8566 14.6023V23.7572H22.6085V14.6023H22.8566ZM11.0445 12.779V25.8536H10.2984V12.5172L11.0445 12.779ZM13.0823 12.9956V25.5083H12.3997V12.8941L13.0823 12.9956ZM14.9078 13.3318V25.1608H14.2867V13.2009L14.9078 13.3318ZM16.5348 13.6207V24.9058H15.9753V13.4717L16.5348 13.6207ZM18.0349 13.8937V24.5899H17.5389V13.7764L18.0349 13.8937ZM19.4199 14.0923V24.3484H18.9853V13.9795L19.4199 14.0923ZM20.66 14.3495V24.1295H20.287V14.2164L20.66 14.3495ZM21.8148 14.5707V23.9242H21.5033V14.4082L21.8148 14.5707Z" fill="white"/>
</svg>
