<svg width="22" height="22" viewBox="0 0 22 22" fill="none" xmlns="http://www.w3.org/2000/svg">
<path fill-rule="evenodd" clip-rule="evenodd" d="M2.74999 2.75C1.73747 2.75 0.916656 3.57081 0.916656 4.58333V17.4167C0.916656 18.4292 1.73747 19.25 2.74999 19.25H19.25C20.2625 19.25 21.0833 18.4292 21.0833 17.4167V4.58333C21.0833 3.57081 20.2625 2.75 19.25 2.75H2.74999ZM3.66666 13.75C3.1604 13.75 2.74999 14.1604 2.74999 14.6667V16.5C2.74999 17.0063 3.1604 17.4167 3.66666 17.4167C4.17292 17.4167 4.58332 17.0063 4.58332 16.5V14.6667C4.58332 14.1604 4.17292 13.75 3.66666 13.75ZM6.41666 12.8333C6.41666 12.3271 6.82706 11.9167 7.33332 11.9167C7.83958 11.9167 8.24999 12.3271 8.24999 12.8333V16.5C8.24999 17.0063 7.83958 17.4167 7.33332 17.4167C6.82706 17.4167 6.41666 17.0063 6.41666 16.5V12.8333ZM11 6.41667C10.4937 6.41667 10.0833 6.82707 10.0833 7.33333V16.5C10.0833 17.0063 10.4937 17.4167 11 17.4167C11.5063 17.4167 11.9167 17.0063 11.9167 16.5V7.33333C11.9167 6.82707 11.5063 6.41667 11 6.41667ZM13.75 9.16667C13.75 8.66041 14.1604 8.25 14.6667 8.25C15.1729 8.25 15.5833 8.66041 15.5833 9.16667V16.5C15.5833 17.0063 15.1729 17.4167 14.6667 17.4167C14.1604 17.4167 13.75 17.0063 13.75 16.5V9.16667ZM18.3333 4.58333C17.8271 4.58333 17.4167 4.99374 17.4167 5.5V16.5C17.4167 17.0063 17.8271 17.4167 18.3333 17.4167C18.8396 17.4167 19.25 17.0063 19.25 16.5V5.5C19.25 4.99374 18.8396 4.58333 18.3333 4.58333Z" fill="white"/>
</svg>
