<svg width="28" height="14" viewBox="0 0 28 14" fill="none" xmlns="http://www.w3.org/2000/svg">
<path d="M0.0935674 1.17476C1.89626 -0.428791 3.69895 -0.390393 5.50134 1.28995C7.02545 2.71067 9.40383 2.67109 10.9365 1.25923C12.7592 -0.419635 14.5819 -0.419635 16.4047 1.25923C17.9373 2.67109 20.3157 2.71067 21.8398 1.28995C23.6425 -0.390689 25.4452 -0.429086 27.2476 1.17476C27.3068 1.22733 27.3411 1.30383 27.3411 1.38152V4.88428C25.5184 3.20541 23.6959 3.50728 21.8732 5.18585C20.333 6.6042 17.9494 6.61247 16.4111 5.19235C14.5841 3.5055 12.7568 3.5055 10.9298 5.19235C9.39137 6.61277 7.00783 6.6042 5.46762 5.18585C3.64518 3.50728 1.82274 3.20541 0 4.88428V1.38152C0 1.30383 0.0343283 1.22733 0.0935674 1.17476Z" fill="white"/>
<path d="M0 8.64345C1.83368 6.95424 3.66766 6.96458 5.50134 8.67417C7.02546 10.0949 9.40383 10.0553 10.9365 8.64345C12.7592 6.96458 14.5819 6.96458 16.4047 8.64345C17.9373 10.0553 20.3157 10.0949 21.8398 8.67417C23.6735 6.96458 25.5075 6.95424 27.3411 8.64345V12.2685C25.5187 10.5899 23.6963 10.8915 21.8738 12.5698C20.3333 13.9884 17.9495 13.9967 16.4108 12.5763C14.5841 10.8897 12.7571 10.8897 10.9304 12.5763C9.39168 13.9967 7.00784 13.9884 5.46732 12.5698C3.64488 10.8915 1.82244 10.5896 0 12.2685V8.64345Z" fill="white"/>
</svg>
