<svg width="28" height="22" viewBox="0 0 28 22" fill="none" xmlns="http://www.w3.org/2000/svg">
<path d="M4.63102 17.5773H1.14102C1.10362 17.5773 1.06775 17.5605 1.0413 17.5306C1.01485 17.5006 1 17.46 1 17.4177V1.81239C1.0002 1.77019 1.01513 1.72979 1.04155 1.70003C1.06798 1.67027 1.10375 1.65356 1.14102 1.65356H16.7591C16.7963 1.65356 16.8321 1.67027 16.8585 1.70003C16.8849 1.72979 16.8999 1.77019 16.9001 1.81239V17.5773" fill="#A7D1FA"/>
<path d="M4.63102 17.5773H1.14102C1.10362 17.5773 1.06775 17.5605 1.0413 17.5306C1.01485 17.5006 1 17.46 1 17.4177V1.81239C1.0002 1.77019 1.01513 1.72979 1.04155 1.70003C1.06798 1.67027 1.10375 1.65356 1.14102 1.65356H16.7591C16.7963 1.65356 16.8321 1.67027 16.8585 1.70003C16.8849 1.72979 16.8999 1.77019 16.9001 1.81239V17.5773" stroke="#A7D1FA" stroke-width="2" stroke-miterlimit="10" stroke-linecap="round"/>
<path d="M19.0448 17.5768H9.79712" stroke="#A7D1FA" stroke-width="2" stroke-miterlimit="10" stroke-linecap="round"/>
<path d="M16.9801 3.77295H22.2781C22.3345 3.77316 22.3898 3.78954 22.439 3.82057C22.4882 3.8516 22.5297 3.89625 22.5595 3.95036L26.2905 10.7578C26.3936 10.9464 26.4484 11.1637 26.4487 11.3855V16.2009C26.4487 16.5663 26.3205 16.9168 26.0922 17.1752C25.6855 17.6356 25.0212 17.28 24.6675 16.7777L20.4282 10.7578" fill="#A7D1FA"/>
<path d="M16.9801 3.77295H22.2781C22.3345 3.77316 22.3898 3.78954 22.439 3.82057C22.4882 3.8516 22.5297 3.89625 22.5595 3.95036L26.2905 10.7578C26.3936 10.9464 26.4484 11.1637 26.4487 11.3855V16.2009C26.4487 16.5663 26.3205 16.9168 26.0922 17.1752V17.1752C25.6855 17.6356 25.0212 17.28 24.6675 16.7777L20.4282 10.7578" stroke="#A7D1FA" stroke-width="2" stroke-miterlimit="10" stroke-linecap="round"/>
<path d="M24.1302 18.1035C24.3588 16.5261 23.4147 15.0375 22.0214 14.7787C20.6282 14.5198 19.3133 15.5887 19.0847 17.1661C18.856 18.7434 19.8001 20.232 21.1934 20.4909C22.5867 20.7498 23.9015 19.6809 24.1302 18.1035Z" stroke="#A7D1FA" stroke-width="2" stroke-miterlimit="10" stroke-linecap="round"/>
<path d="M9.77659 17.9028C9.91658 16.3122 8.89111 14.8943 7.48615 14.7358C6.08119 14.5773 4.82876 15.7383 4.68877 17.3289C4.54878 18.9195 5.57425 20.3374 6.97921 20.4959C8.38418 20.6544 9.63661 19.4934 9.77659 17.9028Z" stroke="#A7D1FA" stroke-width="2" stroke-miterlimit="10" stroke-linecap="round"/>
<path d="M23.5395 6.29657H20.5106C20.4748 6.29652 20.4395 6.3054 20.4071 6.32256C20.3746 6.33972 20.3459 6.36474 20.323 6.39586C20.3001 6.42698 20.2835 6.46343 20.2744 6.50263C20.2653 6.54182 20.2639 6.5828 20.2704 6.62266L20.9069 10.6887C20.9215 10.7788 20.9636 10.8603 21.0257 10.9189C21.0879 10.9775 21.1662 11.0097 21.2471 11.0098H26.3004" fill="#EDF5FD"/>
<path d="M23.5395 6.29657H20.5106C20.4748 6.29652 20.4395 6.3054 20.4071 6.32256C20.3746 6.33972 20.3459 6.36474 20.323 6.39586C20.3001 6.42698 20.2835 6.46343 20.2744 6.50263C20.2653 6.54182 20.2639 6.5828 20.2704 6.62266L20.9069 10.6887C20.9215 10.7788 20.9636 10.8603 21.0257 10.9189C21.0879 10.9775 21.1662 11.0097 21.2471 11.0098H26.3004" stroke="#A7D1FA" stroke-width="2" stroke-miterlimit="10" stroke-linecap="round"/>
<path d="M15.361 7.01095C15.3919 5.80931 16.2725 4.79926 17.4588 4.60485C18.7722 4.3896 20.0244 5.23963 20.3092 6.53973L21.2731 10.9403C21.7104 12.9371 20.9092 15.0016 19.2393 16.1805L18.4655 16.7268C18.1113 16.9768 17.6884 17.1111 17.2548 17.1111C16.0744 17.1111 15.126 16.138 15.1564 14.9579L15.361 7.01095Z" fill="#A7D1FA"/>
<line y1="-0.7" x2="20.1408" y2="-0.7" transform="matrix(0.0311147 0.999516 -0.999162 0.0409396 17.2944 0.934448)" stroke="#EEF6FD" stroke-width="1.4"/>
<line x1="3.52478" y1="3.75726" x2="3.52478" y2="14.3714" stroke="white" stroke-linecap="round"/>
<line x1="6.89941" y1="3.75726" x2="6.89941" y2="14.3714" stroke="white" stroke-linecap="round"/>
<line x1="10.274" y1="3.75726" x2="10.274" y2="14.3714" stroke="white" stroke-linecap="round"/>
<line x1="13.6487" y1="3.75726" x2="13.6487" y2="14.3714" stroke="white" stroke-linecap="round"/>
</svg>
