<svg width="28" height="31" viewBox="0 0 28 31" fill="none" xmlns="http://www.w3.org/2000/svg">
<path fill-rule="evenodd" clip-rule="evenodd" d="M17.4519 5.16665C15.8973 5.16665 14.6371 6.61239 14.6371 8.39581V22.6041C14.6371 25.8143 12.3687 28.4166 9.57041 28.4166C6.77216 28.4166 4.50372 25.8143 4.50372 22.6041V12.9166C4.50372 12.2033 5.00782 11.625 5.62965 11.625C6.25149 11.625 6.75558 12.2033 6.75558 12.9166V22.6041C6.75558 24.3876 8.01583 25.8333 9.57041 25.8333C11.125 25.8333 12.3852 24.3876 12.3852 22.6041V8.39581C12.3852 5.18566 14.6537 2.58331 17.4519 2.58331C20.2502 2.58331 22.5186 5.18566 22.5186 8.39581V16.7916C22.5186 17.505 22.0145 18.0833 21.3927 18.0833C20.7708 18.0833 20.2668 17.505 20.2668 16.7916V8.39581C20.2668 6.61239 19.0065 5.16665 17.4519 5.16665Z" fill="#A7D1FA"/>
<path d="M21.2319 19.9286C19.6301 19.9286 18.015 20.1853 18.015 21.9432V26.7408C18.015 27.7172 18.6512 28.5156 19.426 28.5156L18.8285 29.2671V29.5238H19.718L20.5197 28.5156H22.032L22.8336 29.5238H23.6352V29.2671L23.0378 28.5156C23.8141 28.5156 24.4488 27.7153 24.4488 26.7408V21.9432C24.4488 20.1853 23.0124 19.9286 21.2319 19.9286ZM19.426 27.5092C19.0952 27.5092 18.8285 27.1737 18.8285 26.7577C18.8285 26.3417 19.0952 26.0062 19.426 26.0062C19.7568 26.0062 20.0235 26.3417 20.0235 26.7577C20.0235 27.1737 19.7568 27.5092 19.426 27.5092ZM20.8251 23.9747H18.8285V21.9432H20.837V23.9747H20.8251ZM21.6386 23.9747V21.9432H23.6472V23.9578H21.6386V23.9747ZM23.0378 27.5092C22.707 27.5092 22.4403 27.1737 22.4403 26.7577C22.4403 26.3417 22.707 26.0062 23.0378 26.0062C23.3685 26.0062 23.6352 26.3417 23.6352 26.7577C23.6352 27.1737 23.3685 27.5092 23.0378 27.5092Z" fill="#A7D1FA"/>
<path d="M1.34797 2.70522C1.89729 2.03511 2.44661 2.05115 2.99584 2.75336C3.46028 3.34706 4.18502 3.33052 4.65205 2.74052C5.20748 2.03893 5.76291 2.03893 6.31835 2.74052C6.78537 3.33052 7.51012 3.34706 7.97455 2.75336C8.52388 2.05103 9.0732 2.03498 9.62243 2.70522C9.64048 2.72719 9.65094 2.75916 9.65094 2.79162V4.2554C9.09551 3.55381 8.54017 3.67996 7.98474 4.38142C7.5154 4.97415 6.78908 4.9776 6.32029 4.38414C5.76356 3.67922 5.20674 3.67922 4.65001 4.38414C4.18123 4.97772 3.45491 4.97415 2.98557 4.38142C2.43023 3.67996 1.87489 3.55381 1.31946 4.2554V2.79162C1.31946 2.75916 1.32992 2.72719 1.34797 2.70522Z" fill="#B3D7FA"/>
<path d="M1.31946 5.82585C1.87822 5.11994 2.43708 5.12426 2.99584 5.83868C3.46028 6.43239 4.18502 6.41585 4.65205 5.82585C5.20748 5.12426 5.76291 5.12426 6.31835 5.82585C6.78537 6.41585 7.51012 6.43239 7.97455 5.83868C8.53332 5.12426 9.09218 5.11994 9.65094 5.82585V7.34073C9.0956 6.63926 8.54026 6.76529 7.98492 7.46663C7.51549 8.05947 6.78908 8.06293 6.3202 7.46934C5.76356 6.76455 5.20683 6.76455 4.6502 7.46934C4.18132 8.06293 3.45491 8.05947 2.98548 7.46663C2.43014 6.76529 1.8748 6.63914 1.31946 7.34073V5.82585Z" fill="#B3D7FA"/>
</svg>
