<svg width="22" height="18" viewBox="0 0 22 18" fill="none" xmlns="http://www.w3.org/2000/svg">
<path fill-rule="evenodd" clip-rule="evenodd" d="M2.74999 0.75C1.73747 0.75 0.916656 1.57081 0.916656 2.58333V15.4167C0.916656 16.4292 1.73747 17.25 2.74999 17.25H19.25C20.2625 17.25 21.0833 16.4292 21.0833 15.4167V2.58333C21.0833 1.57081 20.2625 0.75 19.25 0.75H2.74999ZM3.66666 11.75C3.1604 11.75 2.74999 12.1604 2.74999 12.6667V14.5C2.74999 15.0063 3.1604 15.4167 3.66666 15.4167C4.17292 15.4167 4.58332 15.0063 4.58332 14.5V12.6667C4.58332 12.1604 4.17292 11.75 3.66666 11.75ZM6.41666 10.8333C6.41666 10.3271 6.82706 9.91667 7.33332 9.91667C7.83958 9.91667 8.24999 10.3271 8.24999 10.8333V14.5C8.24999 15.0063 7.83958 15.4167 7.33332 15.4167C6.82706 15.4167 6.41666 15.0063 6.41666 14.5V10.8333ZM11 4.41667C10.4937 4.41667 10.0833 4.82707 10.0833 5.33333V14.5C10.0833 15.0063 10.4937 15.4167 11 15.4167C11.5063 15.4167 11.9167 15.0063 11.9167 14.5V5.33333C11.9167 4.82707 11.5063 4.41667 11 4.41667ZM13.75 7.16667C13.75 6.66041 14.1604 6.25 14.6667 6.25C15.1729 6.25 15.5833 6.66041 15.5833 7.16667V14.5C15.5833 15.0063 15.1729 15.4167 14.6667 15.4167C14.1604 15.4167 13.75 15.0063 13.75 14.5V7.16667ZM18.3333 2.58333C17.8271 2.58333 17.4167 2.99374 17.4167 3.5V14.5C17.4167 15.0063 17.8271 15.4167 18.3333 15.4167C18.8396 15.4167 19.25 15.0063 19.25 14.5V3.5C19.25 2.99374 18.8396 2.58333 18.3333 2.58333Z" fill="#A5CDF7"/>
</svg>
