<svg width="23" height="22" viewBox="0 0 23 22" fill="none" xmlns="http://www.w3.org/2000/svg">
<path d="M1.3392 13.75C1.3392 12.7375 2.16001 11.9167 3.17254 11.9167H8.67254C9.68506 11.9167 10.5059 12.7375 10.5059 13.75V19.25C10.5059 20.2625 9.68506 21.0834 8.67254 21.0834H3.17254C2.16001 21.0834 1.3392 20.2625 1.3392 19.25V13.75Z" fill="#A5CDF7"/>
<path d="M4.0892 11.9167H7.75587V15.3935C7.75587 15.8018 7.26218 16.0063 6.97345 15.7176L6.24663 14.9908C6.06764 14.8118 5.77744 14.8118 5.59845 14.9908L4.87163 15.7176C4.58289 16.0063 4.0892 15.8018 4.0892 15.3935V11.9167Z" fill="#F5FAFE"/>
<path d="M12.3392 13.75C12.3392 12.7375 13.16 11.9167 14.1725 11.9167H19.6725C20.6851 11.9167 21.5059 12.7375 21.5059 13.75V19.25C21.5059 20.2625 20.6851 21.0834 19.6725 21.0834H14.1725C13.16 21.0834 12.3392 20.2625 12.3392 19.25V13.75Z" fill="#A5CDF7"/>
<path d="M15.0892 11.9167H18.7559V15.3935C18.7559 15.8018 18.2622 16.0063 17.9734 15.7176L17.2466 14.9908C17.0676 14.8118 16.7774 14.8118 16.5984 14.9908L15.8716 15.7176C15.5829 16.0063 15.0892 15.8018 15.0892 15.3935V11.9167Z" fill="#F5FAFE"/>
<g clip-path="url(#clip0_1241_2652)">
<path d="M6.8392 3.70656C6.8392 2.69404 7.66001 1.87323 8.67254 1.87323H14.1725C15.1851 1.87323 16.0059 2.69404 16.0059 3.70656V9.20656C16.0059 10.2191 15.1851 11.0399 14.1725 11.0399H8.67254C7.66001 11.0399 6.8392 10.2191 6.8392 9.20656V3.70656Z" fill="#A5CDF7"/>
<path d="M9.5892 1.87323H13.2559V5.35005C13.2559 5.75838 12.7622 5.96287 12.4734 5.67414L11.7466 4.94732C11.5676 4.76833 11.2774 4.76833 11.0984 4.94732L10.3716 5.67414C10.0829 5.96287 9.5892 5.75838 9.5892 5.35005V1.87323Z" fill="#F5FAFE"/>
</g>
<defs>
<clipPath id="clip0_1241_2652">
<rect width="11" height="11" fill="white" transform="translate(5.92255 0.956543)"/>
</clipPath>
</defs>
</svg>
