<svg width="18" height="24" viewBox="0 0 18 24" fill="none" xmlns="http://www.w3.org/2000/svg">
<path d="M8.71687 0C4.37661 0 0 0.642187 0 5.03906V17.0391C0 19.4813 1.724 21.4781 3.82347 21.4781L2.20445 23.3578V24H4.61482L6.78697 21.4781H10.885L13.0571 24H15.2293V23.3578L13.6103 21.4781C15.7138 21.4781 17.4337 19.4766 17.4337 17.0391V5.03906C17.4337 0.642187 13.5416 0 8.71687 0ZM3.82347 18.9609C2.92716 18.9609 2.20445 18.1219 2.20445 17.0812C2.20445 16.0406 2.92716 15.2016 3.82347 15.2016C4.71979 15.2016 5.44249 16.0406 5.44249 17.0812C5.44249 18.1219 4.71979 18.9609 3.82347 18.9609ZM7.61465 10.1203H2.20445V5.03906H7.64695V10.1203H7.61465ZM9.8191 10.1203V5.03906H15.2616V10.0781H9.8191V10.1203ZM13.6103 18.9609C12.714 18.9609 11.9913 18.1219 11.9913 17.0812C11.9913 16.0406 12.714 15.2016 13.6103 15.2016C14.5066 15.2016 15.2293 16.0406 15.2293 17.0812C15.2293 18.1219 14.5066 18.9609 13.6103 18.9609Z" fill="#A7D1FA"/>
</svg>
