<svg width="24" height="22" viewBox="0 0 24 22" fill="none" xmlns="http://www.w3.org/2000/svg">
<path d="M12 0C9.10042 0 6.75 2.42387 6.75 5.41406C6.75 7.83148 10.1812 12.2375 11.4958 13.8368C11.7621 14.1608 12.2383 14.1608 12.5042 13.8368C13.8188 12.2375 17.25 7.83148 17.25 5.41406C17.25 2.42387 14.8996 0 12 0ZM12 7.21875C11.0333 7.21875 10.25 6.41094 10.25 5.41406C10.25 4.41719 11.0333 3.60938 12 3.60938C12.9667 3.60938 13.75 4.41719 13.75 5.41406C13.75 6.41094 12.9667 7.21875 12 7.21875ZM0.838333 9.2791C0.590908 9.38116 0.378804 9.55732 0.229379 9.78486C0.0799536 10.0124 5.92587e-05 10.2809 0 10.5557L0 21.3116C0 21.798 0.47625 22.1306 0.914167 21.9502L6.66667 19.25V9.23484C6.29833 8.5482 5.99708 7.87961 5.78125 7.24023L0.838333 9.2791ZM12 15.4546C11.4138 15.4546 10.8592 15.189 10.4788 14.7258C9.65958 13.7289 8.78833 12.5937 8 11.4293V19.2496L16 21.9996V11.4297C15.2117 12.5937 14.3408 13.7294 13.5213 14.7262C13.1408 15.189 12.5863 15.4546 12 15.4546ZM23.0858 6.92484L17.3333 9.625V22L23.1617 19.5959C23.4091 19.4939 23.6213 19.3177 23.7707 19.0902C23.9201 18.8626 24 18.5941 24 18.3193V7.56336C24 7.07695 23.5238 6.74438 23.0858 6.92484Z" fill="#A5CDF7"/>
</svg>
