<svg width="20" height="20" viewBox="0 0 20 20" fill="none" xmlns="http://www.w3.org/2000/svg">
<path opacity="0.25" fill-rule="evenodd" clip-rule="evenodd" d="M9.99999 3.33366C6.31809 3.33366 3.33332 6.31843 3.33332 10.0003C3.33332 13.6822 6.31809 16.667 9.99999 16.667C11.0658 16.667 12.071 16.4175 12.9625 15.9745C13.3746 15.7696 13.8748 15.9377 14.0796 16.3499C14.2844 16.762 14.1163 17.2622 13.7042 17.467C12.5874 18.022 11.3289 18.3337 9.99999 18.3337C5.39762 18.3337 1.66666 14.6027 1.66666 10.0003C1.66666 5.39795 5.39762 1.66699 9.99999 1.66699C14.6024 1.66699 18.3333 5.39795 18.3333 10.0003V10.0078C18.3334 10.2347 18.3335 11.1766 18.0301 12.0868C17.8753 12.5513 17.6227 13.067 17.1968 13.4739C16.7511 13.8998 16.1552 14.167 15.4167 14.167C14.9564 14.167 14.5833 13.7939 14.5833 13.3337C14.5833 12.8734 14.9564 12.5003 15.4167 12.5003C15.7198 12.5003 15.9051 12.4029 16.0454 12.2689C16.2055 12.116 16.3434 11.8765 16.449 11.5597C16.663 10.9177 16.6667 10.204 16.6667 10.0003C16.6667 6.31843 13.6819 3.33366 9.99999 3.33366Z" fill="#2090FB"/>
<path fill-rule="evenodd" clip-rule="evenodd" d="M12.5 9.99967C12.5 11.3804 11.3807 12.4997 10 12.4997C8.6193 12.4997 7.50001 11.3804 7.50001 9.99967C7.50001 8.61896 8.6193 7.49967 10 7.49967C11.3807 7.49967 12.5 8.61896 12.5 9.99967ZM13.1255 12.7552C12.362 13.6205 11.2447 14.1663 10 14.1663C7.69882 14.1663 5.83334 12.3009 5.83334 9.99967C5.83334 7.69849 7.69882 5.83301 10 5.83301C10.938 5.83301 11.8036 6.14296 12.5 6.66604C12.5002 6.20594 12.8732 5.83301 13.3333 5.83301C13.7936 5.83301 14.1667 6.2061 14.1667 6.66634C14.1667 8.79392 14.1718 10.3455 14.4064 11.3775C14.5211 11.8823 14.6693 12.1528 14.808 12.2945C14.9183 12.4074 15.0802 12.4997 15.4167 12.4997C15.8769 12.4997 16.25 12.8728 16.25 13.333C16.25 13.7932 15.8769 14.1663 15.4167 14.1663C14.7115 14.1663 14.0921 13.9462 13.6166 13.46C13.4143 13.2533 13.2539 13.0143 13.1255 12.7552Z" fill="#2090FB"/>
</svg>
