<svg width="16" height="16" viewBox="0 0 16 16" fill="none" xmlns="http://www.w3.org/2000/svg">
<path d="M11.3334 4.00033C11.3334 5.84127 9.84103 7.33366 8.00008 7.33366C6.15913 7.33366 4.66675 5.84127 4.66675 4.00033C4.66675 2.15938 6.15913 0.666992 8.00008 0.666992C9.84103 0.666992 11.3334 2.15938 11.3334 4.00033Z" fill="#2090FB"/>
<path opacity="0.25" fill-rule="evenodd" clip-rule="evenodd" d="M12.5453 9.41662C12.1344 8.94016 11.4286 8.96471 10.8766 9.26681C10.0225 9.73429 9.04231 10.0001 8 10.0001C6.95769 10.0001 5.97745 9.73429 5.12337 9.26681C4.57144 8.96471 3.86561 8.94016 3.45467 9.41662C2.54815 10.4677 2 11.8365 2 13.3334V14.0001C2 14.7364 2.59695 15.3334 3.33333 15.3334H12.6667C13.403 15.3334 14 14.7364 14 14.0001V13.3334C14 11.8365 13.4518 10.4677 12.5453 9.41662Z" fill="#2090FB"/>
</svg>
