<svg width="18" height="18" viewBox="0 0 18 18" fill="none" xmlns="http://www.w3.org/2000/svg">
<path opacity="0.25" fill-rule="evenodd" clip-rule="evenodd" d="M2.33338 9.92161C2.45353 8.25928 3.76032 6.96867 5.42363 6.86294C6.41833 6.79972 7.63459 6.75 9 6.75C10.3654 6.75 11.5817 6.79972 12.5764 6.86294C14.2397 6.96867 15.5465 8.25928 15.6666 9.92161C15.7151 10.5925 15.75 11.3137 15.75 12C15.75 12.6863 15.7151 13.4075 15.6666 14.0784C15.5465 15.7407 14.2397 17.0313 12.5764 17.1371C11.5817 17.2003 10.3654 17.25 9 17.25C7.63459 17.25 6.41833 17.2003 5.42363 17.1371C3.76032 17.0313 2.45353 15.7407 2.33338 14.0784C2.28489 13.4075 2.25 12.6863 2.25 12C2.25 11.3137 2.28489 10.5925 2.33338 9.92161Z" fill="#2090FB"/>
<path fill-rule="evenodd" clip-rule="evenodd" d="M9.75 12.5493C10.1984 12.29 10.5 11.8052 10.5 11.25C10.5 10.4216 9.82843 9.75 9 9.75C8.17157 9.75 7.5 10.4216 7.5 11.25C7.5 11.8052 7.80165 12.29 8.25 12.5493V13.5C8.25 13.9142 8.58579 14.25 9 14.25C9.41421 14.25 9.75 13.9142 9.75 13.5V12.5493Z" fill="#2090FB"/>
<path fill-rule="evenodd" clip-rule="evenodd" d="M5.25 4.5C5.25 2.42893 6.92893 0.75 9 0.75C11.0711 0.75 12.75 2.42893 12.75 4.5V7.5C12.75 7.91421 12.4142 8.25 12 8.25C11.5858 8.25 11.25 7.91421 11.25 7.5V4.5C11.25 3.25736 10.2426 2.25 9 2.25C7.75736 2.25 6.75 3.25736 6.75 4.5V7.5C6.75 7.91421 6.41421 8.25 6 8.25C5.58579 8.25 5.25 7.91421 5.25 7.5V4.5Z" fill="#2090FB"/>
</svg>
