<svg width="15" height="16" viewBox="0 0 15 16" fill="none" xmlns="http://www.w3.org/2000/svg">
<path fill-rule="evenodd" clip-rule="evenodd" d="M7.9359 2.05066C4.65051 2.05066 1.98718 4.71399 1.98718 7.99937C1.98718 11.2848 4.65051 13.9481 7.9359 13.9481C10.2644 13.9481 12.2416 12.609 13.2187 10.6428C13.4015 10.275 13.8478 10.1251 14.2155 10.3078C14.5833 10.4906 14.7333 10.9369 14.5505 11.3047C13.3374 13.7457 10.8626 15.4353 7.9359 15.4353C3.82916 15.4353 0.5 12.1061 0.5 7.99937C0.5 3.89264 3.82916 0.563477 7.9359 0.563477C10.8626 0.563477 13.3374 2.2531 14.5505 4.69409C14.7333 5.06186 14.5833 5.50815 14.2155 5.69091C13.8478 5.87367 13.4015 5.7237 13.2187 5.35594C12.2416 3.38977 10.2644 2.05066 7.9359 2.05066Z" fill="white" fill-opacity="0.7"/>
<path fill-rule="evenodd" clip-rule="evenodd" d="M14.2564 1.30664C14.6671 1.30664 15 1.63956 15 2.05023L15 5.02459C15 5.22218 14.9213 5.41164 14.7814 5.55116C14.6415 5.69067 14.4518 5.76875 14.2542 5.76818L11.2799 5.75946C10.8692 5.75826 10.5373 5.42437 10.5385 5.0137C10.5397 4.60303 10.8735 4.27109 11.2842 4.27229L13.5128 4.27882L13.5128 2.05023C13.5128 1.63956 13.8457 1.30664 14.2564 1.30664Z" fill="white"/>
</svg>
