<svg width="16" height="15" viewBox="0 0 16 15" fill="none" xmlns="http://www.w3.org/2000/svg">
<path d="M13.5385 14.4408L13.6432 14.5525L13.7527 14.4455L14.6833 13.5361L14.7931 13.4288L14.6833 13.3215L11.3678 10.0814C12.1137 9.10998 12.5571 7.75684 12.5571 6.45654C12.5571 3.32289 9.961 0.85 6.82367 0.85C3.68603 0.85 1.09023 3.32289 1.09023 6.45654C1.09023 9.59019 3.68603 12.0631 6.82367 12.0631C8.11169 12.0631 9.27055 11.6194 10.2196 10.9026L13.5385 14.4408ZM6.82367 10.5505C4.52677 10.5505 2.631 8.73518 2.631 6.45654C2.631 4.17791 4.52677 2.36256 6.82367 2.36256C9.12057 2.36256 11.0163 4.17791 11.0163 6.45654C11.0163 8.73518 9.12057 10.5505 6.82367 10.5505Z" fill="#19344D" stroke="#19344D" stroke-width="0.3"/>
</svg>
