<svg width="13" height="16" viewBox="0 0 13 16" fill="none" xmlns="http://www.w3.org/2000/svg">
<path d="M6.99841 0.464844C6.16966 0.464844 5.49841 1.13609 5.49841 1.96484H1.74841C1.33441 1.96484 0.998413 2.30084 0.998413 2.71484C0.998413 3.12884 1.33441 3.46483 1.74841 3.46483V12.4648C1.74841 14.1073 3.10216 15.4648 4.74841 15.4648H9.24841C10.8947 15.4648 12.2484 14.1111 12.2484 12.4648V3.46483C12.6624 3.46483 12.9984 3.12884 12.9984 2.71484C12.9984 2.30084 12.6624 1.96484 12.2484 1.96484H8.49841C8.49841 1.13609 7.82716 0.464844 6.99841 0.464844ZM3.24841 3.46483H10.7484V12.4648C10.7484 13.2876 10.0809 13.9648 9.27166 13.9648L4.74841 13.9415C3.92191 13.9415 3.24841 13.2741 3.24841 12.4648V3.46483ZM5.49841 4.96483C5.08441 4.96483 4.74841 5.30083 4.74841 5.71483V11.7148C4.74841 12.1288 5.08441 12.4648 5.49841 12.4648C5.91241 12.4648 6.24841 12.1288 6.24841 11.7148V5.71483C6.24841 5.30083 5.91241 4.96483 5.49841 4.96483ZM8.49841 4.96483C8.08441 4.96483 7.74841 5.30083 7.74841 5.71483V11.7148C7.74841 12.1288 8.08441 12.4648 8.49841 12.4648C8.91241 12.4648 9.24841 12.1288 9.24841 11.7148V5.71483C9.24841 5.30083 8.91241 4.96483 8.49841 4.96483Z" fill="white"/>
</svg>
