<svg width="14" height="14" viewBox="0 0 14 14" fill="none" xmlns="http://www.w3.org/2000/svg">
<g clip-path="url(#clip0_3431_6884)">
<path d="M4.66663 4.66797V3.5013C4.66663 2.21264 5.71129 1.16797 6.99996 1.16797L10.5 1.16797C11.7886 1.16797 12.8333 2.21264 12.8333 3.5013V7.0013C12.8333 8.28997 11.7886 9.33464 10.5 9.33464H9.33329M4.66663 4.66797H3.49996C2.21129 4.66797 1.16663 5.71264 1.16663 7.0013V10.5013C1.16663 11.79 2.21129 12.8346 3.49996 12.8346H6.99996C8.28862 12.8346 9.33329 11.79 9.33329 10.5013V9.33464M4.66663 4.66797H6.99996C8.28862 4.66797 9.33329 5.71264 9.33329 7.0013V9.33464" stroke="#2090FB" stroke-width="1.5" stroke-linejoin="round"/>
</g>
<defs>
<clipPath id="clip0_3431_6884">
<rect width="14" height="14" fill="white"/>
</clipPath>
</defs>
</svg>
