<svg width="88" height="88" viewBox="0 0 88 88" fill="none" xmlns="http://www.w3.org/2000/svg">
<circle cx="44.0146" cy="43.9853" r="43.9853" fill="#2090FB" fill-opacity="0.15"/>
<path d="M34.2404 71.9821L14.6914 60.7666V38.3213L34.2404 49.544V71.9821Z" fill="#2090FB"/>
<path d="M16.3476 61.0851L15.4758 60.5868V39.6436L16.3476 40.1419V61.0851Z" fill="#007BF0"/>
<path d="M18.2451 62.1759L17.3806 61.6776V40.7344L18.2451 41.2327V62.1759Z" fill="#007BF0"/>
<path d="M20.147 63.2657L19.2825 62.7674V41.8242L20.147 42.3225V63.2657Z" fill="#007BF0"/>
<path d="M22.05 64.3566L21.1782 63.8583V42.915L22.05 43.4133V64.3566Z" fill="#007BF0"/>
<path d="M23.9465 65.447L23.082 64.9487V44.0127L23.9465 44.5038V65.447Z" fill="#007BF0"/>
<path d="M25.8493 66.5368L24.9849 66.0458V45.1025L25.8493 45.5936V66.5368Z" fill="#007BF0"/>
<path d="M27.7531 67.6277L26.8813 67.1366V46.1934L27.7531 46.6844V67.6277Z" fill="#007BF0"/>
<path d="M29.6499 68.7247L28.7854 68.2264V47.2832L29.6499 47.7743V68.7247Z" fill="#007BF0"/>
<path d="M31.5522 69.8083L30.6877 69.3172V48.374L31.5522 48.8651V69.8083Z" fill="#007BF0"/>
<path d="M33.4565 70.9073L32.5847 70.409V49.4658L33.4565 49.9641V70.9073Z" fill="#007BF0"/>
<path d="M53.7895 60.7666L34.2405 71.9821V49.544L53.7895 38.3213V60.7666Z" fill="#007BF0"/>
<path d="M35.8965 70.409L35.032 70.9073V49.9641L35.8965 49.4658V70.409Z" fill="#2868A5"/>
<path d="M37.7927 69.3172L36.9282 69.8083V48.8651L37.7927 48.374V69.3172Z" fill="#2868A5"/>
<path d="M39.697 68.2264L38.8325 68.7247V47.7743L39.697 47.2832V68.2264Z" fill="#2868A5"/>
<path d="M41.5998 67.1366L40.728 67.6277V46.6844L41.5998 46.1934V67.1366Z" fill="#2868A5"/>
<path d="M43.4951 66.0458L42.6306 66.5368V45.5936L43.4951 45.1025V66.0458Z" fill="#2868A5"/>
<path d="M45.3994 64.9487L44.5349 65.447V44.5038L45.3994 44.0127V64.9487Z" fill="#2868A5"/>
<path d="M47.3017 63.8583L46.4373 64.3566V43.4133L47.3017 42.915V63.8583Z" fill="#2868A5"/>
<path d="M49.1977 62.7674L48.3333 63.2657V42.3225L49.1977 41.8242V62.7674Z" fill="#2868A5"/>
<path d="M51.1018 61.6776L50.2373 62.1759V41.2327L51.1018 40.7344V61.6776Z" fill="#2868A5"/>
<path d="M53.0051 60.5868L52.1406 61.0851V40.1419L53.0051 39.6436V60.5868Z" fill="#2868A5"/>
<path d="M73.3383 49.5446L53.7893 60.7673V38.3219L73.3383 27.1064V49.5446Z" fill="#007BF0"/>
<path d="M55.446 59.1864L54.5815 59.6847V38.7415L55.446 38.2432V59.1864Z" fill="#2868A5"/>
<path d="M57.3415 58.0956L56.4771 58.5939V37.6506L57.3415 37.1523V58.0956Z" fill="#2868A5"/>
<path d="M59.2453 57.0047L58.3809 57.503V36.5598L59.2453 36.0615V57.0047Z" fill="#2868A5"/>
<path d="M61.1474 55.9139L60.283 56.4122V35.469L61.1474 34.9707V55.9139Z" fill="#2868A5"/>
<path d="M63.0444 54.8241L62.1799 55.3224V34.3792L63.0444 33.8809V54.8241Z" fill="#2868A5"/>
<path d="M64.9477 53.7333L64.0833 54.2316V33.2883L64.9477 32.79V53.7333Z" fill="#2868A5"/>
<path d="M66.8513 52.6434L65.9868 53.1417V32.1985L66.8513 31.7002V52.6434Z" fill="#2868A5"/>
<path d="M68.7473 51.5516L67.8828 52.0499V31.0995L68.7473 30.6084V51.5516Z" fill="#2868A5"/>
<path d="M70.6506 50.4618L69.7861 50.9529V30.0096L70.6506 29.5186V50.4618Z" fill="#2868A5"/>
<path d="M72.5549 49.3704L71.6831 49.8614V28.9182L72.5549 28.4199V49.3704Z" fill="#2868A5"/>
<path d="M34.2405 27.1065L53.7895 15.8838L73.3385 27.1065L53.7895 38.3219L34.2405 27.1065Z" fill="#7BBFFF"/>
<path d="M52.6851 17.1477L53.5495 16.6494L71.7909 27.121L70.9264 27.6193L52.6851 17.1477Z" fill="#2090FB"/>
<path d="M50.782 18.2376L51.6465 17.7393L69.8951 28.2109L69.0306 28.7092L50.782 18.2376Z" fill="#2090FB"/>
<path d="M48.8782 19.3284L49.7499 18.8301L67.9913 29.3017L67.1268 29.8L48.8782 19.3284Z" fill="#2090FB"/>
<path d="M46.9822 20.4192L47.8467 19.9209L66.088 30.3925L65.2236 30.8908L46.9822 20.4192Z" fill="#2090FB"/>
<path d="M45.0793 21.51L45.9438 21.0117L64.1925 31.4833L63.328 31.9816L45.0793 21.51Z" fill="#2090FB"/>
<path d="M43.1753 22.5999L44.047 22.1016L62.2884 32.5732L61.4239 33.0715L43.1753 22.5999Z" fill="#2090FB"/>
<path d="M41.2803 23.6903L42.1448 23.1992L60.3861 33.6708L59.5217 34.1619L41.2803 23.6903Z" fill="#2090FB"/>
<path d="M39.377 24.7811L40.2414 24.29L58.4901 34.7616L57.6256 35.2527L39.377 24.7811Z" fill="#2090FB"/>
<path d="M37.4734 25.871L38.3379 25.3799L56.5865 35.8515L55.722 36.3426L37.4734 25.871Z" fill="#2090FB"/>
<path d="M35.5764 26.969L36.4409 26.4707L54.6823 36.9423L53.8178 37.4334L35.5764 26.969Z" fill="#2090FB"/>
<path d="M14.6914 38.3219L34.2404 27.1064L53.7894 38.3219L34.2404 49.5446L14.6914 38.3219Z" fill="#7BBFFF"/>
<path d="M33.136 28.3704L34.0005 27.8721L52.2418 38.3437L51.3774 38.842L33.136 28.3704Z" fill="#2090FB"/>
<path d="M31.2332 29.4602L32.0976 28.9619L50.3463 39.4335L49.4818 39.9318L31.2332 29.4602Z" fill="#2090FB"/>
<path d="M29.3301 30.551L30.2018 30.0527L48.4432 40.5243L47.5787 41.0226L29.3301 30.551Z" fill="#2090FB"/>
<path d="M27.4336 31.6409L28.2981 31.1426L46.5395 41.6142L45.675 42.1125L27.4336 31.6409Z" fill="#2090FB"/>
<path d="M25.5308 32.7327L26.3952 32.2344L44.6439 42.706L43.7794 43.2043L25.5308 32.7327Z" fill="#2090FB"/>
<path d="M23.6265 33.8225L24.4982 33.3242L42.7396 43.7958L41.8751 44.2941L23.6265 33.8225Z" fill="#2090FB"/>
<path d="M21.7312 34.9133L22.5957 34.415L40.8371 44.8866L39.9726 45.3849L21.7312 34.9133Z" fill="#2090FB"/>
<path d="M19.8274 36.0042L20.6919 35.5059L38.9405 45.9775L38.076 46.4758L19.8274 36.0042Z" fill="#2090FB"/>
<path d="M17.9319 37.094L18.7964 36.5957L37.0377 47.0673L36.1733 47.5656L17.9319 37.094Z" fill="#2090FB"/>
<path d="M16.0281 38.1848L16.8926 37.6865L35.1339 48.1581L34.2695 48.6564L16.0281 38.1848Z" fill="#2090FB"/>
</svg>
