<svg width="38" height="38" viewBox="0 0 38 38" fill="none" xmlns="http://www.w3.org/2000/svg">
<path opacity="0.25" d="M28.0332 3.11475H9.34468C5.49463 3.11475 3.29694 7.51012 5.60697 10.5902L13.3939 20.9727C13.7982 21.5118 14.0168 22.1676 14.0168 22.8415V32.2843C14.0168 34.9251 17.0969 36.3677 19.1256 34.6771L22.2403 32.0815C22.9505 31.4897 23.3611 30.6131 23.3611 29.6887V22.8415C23.3611 22.1676 23.5797 21.5118 23.984 20.9727L31.7709 10.5902C34.0809 7.51012 31.8832 3.11475 28.0332 3.11475Z" fill="white"/>
<path fill-rule="evenodd" clip-rule="evenodd" d="M8.33111 6.60445C8.98416 6.04469 9.96733 6.12032 10.5271 6.77337L17.5064 14.916C18.128 15.6411 19.2498 15.6411 19.8713 14.916L26.8507 6.77337C27.4105 6.12032 28.3936 6.04469 29.0467 6.60445C29.6997 7.1642 29.7754 8.14738 29.2156 8.80042L22.2362 16.943C20.3716 19.1184 17.0062 19.1184 15.1416 16.943L8.16219 8.80042C7.60243 8.14738 7.67806 7.1642 8.33111 6.60445Z" fill="white"/>
</svg>
