<svg width="17" height="18" viewBox="0 0 17 18" fill="none" xmlns="http://www.w3.org/2000/svg">
<path fill-rule="evenodd" clip-rule="evenodd" d="M16.2767 2.23761C16.8178 2.82569 16.8178 3.77917 16.2767 4.36725L15.2532 5.4798C15.0213 5.73183 14.6454 5.73183 14.4135 5.4798C14.1816 5.22776 14.1816 4.81913 14.4135 4.56709L14.9833 3.94781L11.6667 3.94781C11.3388 3.94781 11.0729 3.65886 11.0729 3.30243C11.0729 2.946 11.3388 2.65705 11.6667 2.65705L14.9833 2.65705L14.4135 2.03777C14.1816 1.78573 14.1816 1.3771 14.4135 1.12506C14.6454 0.873026 15.0213 0.873026 15.2532 1.12506L16.2767 2.23761Z" fill="#2090FB"/>
<path opacity="0.4" d="M0.583344 7.60496C0.583344 6.17922 1.64667 5.02344 2.95834 5.02344H10.875C12.1867 5.02344 13.25 6.17922 13.25 7.60496V14.489C13.25 15.9148 12.1867 17.0705 10.875 17.0705H2.95834C1.64667 17.0705 0.583344 15.9148 0.583344 14.489V7.60496Z" fill="#2090FB"/>
<path fill-rule="evenodd" clip-rule="evenodd" d="M3.27503 8.93885C3.47179 8.65371 3.84395 8.59592 4.10628 8.80978L5.84795 10.2296C6.48129 10.7459 7.35212 10.7459 7.98545 10.2296L9.72712 8.80978C9.98945 8.59592 10.3616 8.65371 10.5584 8.93885C10.7551 9.224 10.702 9.62853 10.4396 9.84239L8.69795 11.2622C7.6424 12.1227 6.19101 12.1227 5.13545 11.2622L3.39378 9.84239C3.13145 9.62853 3.07828 9.224 3.27503 8.93885Z" fill="#2090FB"/>
</svg>
