<svg width="15" height="15" viewBox="0 0 15 15" fill="none" xmlns="http://www.w3.org/2000/svg">
<path d="M4.36769 7.686C4.36769 7.28208 4.08721 7.04102 3.59225 7.04102C3.39035 7.04102 3.25356 7.06049 3.18182 7.08001V8.37704C3.26663 8.3963 3.37088 8.40289 3.51385 8.40289C4.04193 8.40289 4.36769 8.13576 4.36769 7.686Z" fill="white"/>
<path d="M7.43125 7.05371C7.20943 7.05371 7.06641 7.07324 6.98138 7.09279V9.96651C7.06624 9.98636 7.20312 9.98636 7.32697 9.98636C8.22612 9.99265 8.81264 9.49764 8.81264 8.4484C8.81923 7.53574 8.28473 7.05371 7.43125 7.05371Z" fill="white"/>
<path d="M13.3014 5.36543H12.9412V3.62753C12.9412 3.61669 12.9395 3.60577 12.938 3.59479C12.9374 3.52578 12.9155 3.458 12.8682 3.4043L9.97617 0.100599C9.9753 0.0997547 9.97446 0.0994551 9.97386 0.0985292C9.95662 0.0792755 9.93652 0.0632624 9.91528 0.0494008C9.90899 0.0451797 9.90264 0.0416394 9.89605 0.0379901C9.87764 0.0279411 9.85812 0.0196078 9.83802 0.0135893C9.83257 0.0120642 9.82767 0.00983114 9.82222 0.00841502C9.80038 0.00324073 9.7777 0 9.75471 0H2.64707C2.32251 0 2.05884 0.26397 2.05884 0.588261V5.36529H1.69874C1.23444 5.36529 0.857971 5.7416 0.857971 6.20606V10.5782C0.857971 11.0423 1.23444 11.4189 1.69874 11.4189H2.05887V14.4117C2.05887 14.736 2.32254 15 2.6471 15H12.353C12.6772 15 12.9412 14.736 12.9412 14.4117V11.4189H13.3014C13.7655 11.4189 14.1421 11.0423 14.1421 10.5782V6.2062C14.1421 5.74176 13.7655 5.36543 13.3014 5.36543ZM2.64707 0.58837H9.4606V3.59798C9.4606 3.76048 9.59243 3.8921 9.75471 3.8921H12.3529V5.36562H2.64707V0.58837ZM9.86817 8.41564C9.86817 9.25649 9.56199 9.83626 9.13778 10.1949C8.6756 10.5793 7.97166 10.7617 7.11175 10.7617C6.59704 10.7617 6.2322 10.7291 5.98427 10.6966V6.38248C6.34916 6.32395 6.82517 6.29136 7.32697 6.29136C8.16063 6.29136 8.70164 6.44135 9.12541 6.76047C9.58138 7.09939 9.86817 7.64015 9.86817 8.41564ZM2.19773 10.7162V6.38248C2.50386 6.33063 2.93417 6.29136 3.54021 6.29136C4.15271 6.29136 4.58942 6.40868 4.88256 6.64342C5.16284 6.86486 5.35137 7.22986 5.35137 7.65998C5.35137 8.09023 5.2084 8.45513 4.94753 8.7026C4.6087 9.02199 4.10699 9.16545 3.52033 9.16545C3.39021 9.16545 3.27251 9.15883 3.18169 9.14576V10.7163H2.19773V10.7162ZM12.353 14.2525H2.64707V11.4189H12.3529V14.2525H12.353ZM13.2053 7.13852H11.5171V8.14209H13.0943V8.9502H11.5171V10.7162H10.5206V6.32395H13.2053V7.13852Z" fill="white"/>
</svg>
