<svg width="20" height="20" viewBox="0 0 20 20" fill="none" xmlns="http://www.w3.org/2000/svg">
<path fill-rule="evenodd" clip-rule="evenodd" d="M7.45413 0.90918C6.34957 0.90918 5.45413 1.80461 5.45413 2.90918V8.00009C5.45413 9.10466 6.34956 10.0001 7.45413 10.0001H12.545C13.6496 10.0001 14.545 9.10466 14.545 8.00009V2.90918C14.545 1.80461 13.6496 0.90918 12.545 0.90918H12.2723H11.4178H8.58141H7.72686H7.45413ZM8.18141 1.591H11.8178V3.57986C11.8178 3.93622 11.3869 4.11469 11.1349 3.8627L10.2824 3.0102C10.1262 2.85399 9.87296 2.85399 9.71675 3.0102L8.86425 3.8627C8.61226 4.11469 8.18141 3.93622 8.18141 3.57986V1.591ZM10.9092 12.9092C10.9092 11.8046 11.8046 10.9092 12.9092 10.9092H13.1819H14.0365H16.8728H17.7274H18.0001C19.1047 10.9092 20.0001 11.8046 20.0001 12.9092V18.0001C20.0001 19.1047 19.1047 20.0001 18.0001 20.0001H12.9092C11.8046 20.0001 10.9092 19.1047 10.9092 18.0001V12.9092ZM17.2728 11.591H13.6365V13.5799C13.6365 13.9362 14.0673 14.1147 14.3193 13.8627L15.1718 13.0102C15.328 12.854 15.5813 12.854 15.7375 13.0102L16.59 13.8627C16.842 14.1147 17.2728 13.9362 17.2728 13.5799V11.591ZM0 12.9093C0 11.8047 0.895431 10.9093 2 10.9093H2.27273H3.12727H5.96364H6.81818H7.09091C8.19548 10.9093 9.09091 11.8047 9.09091 12.9093V18.0002C9.09091 19.1047 8.19548 20.0002 7.09091 20.0002H2C0.895429 20.0002 0 19.1047 0 18.0002V12.9093ZM6.36364 11.5911H2.72727V13.5799C2.72727 13.9363 3.15813 14.1148 3.41012 13.8628L4.26261 13.0103C4.41882 12.8541 4.67209 12.8541 4.8283 13.0103L5.68079 13.8628C5.93278 14.1148 6.36364 13.9363 6.36364 13.5799V11.5911Z" fill="#95C7F8"/>
</svg>
