<svg width="20" height="20" viewBox="0 0 20 20" fill="none" xmlns="http://www.w3.org/2000/svg">
<path fill-rule="evenodd" clip-rule="evenodd" d="M7.45413 0C6.34957 0 5.45413 0.895428 5.45413 2V7.09091C5.45413 8.19548 6.34956 9.09091 7.45413 9.09091H12.545C13.6496 9.09091 14.545 8.19548 14.545 7.09091V2C14.545 0.895429 13.6496 0 12.545 0H12.2723H11.4178H8.58141H7.72686H7.45413ZM8.18141 0.681817H11.8178V2.67068C11.8178 3.02704 11.3869 3.20551 11.1349 2.95352L10.2824 2.10102C10.1262 1.94481 9.87296 1.94481 9.71675 2.10102L8.86425 2.95352C8.61226 3.20551 8.18141 3.02704 8.18141 2.67068V0.681817ZM10.9092 12C10.9092 10.8954 11.8046 10 12.9092 10H13.1819H14.0365H16.8728H17.7274H18.0001C19.1047 10 20.0001 10.8954 20.0001 12V17.0909C20.0001 18.1955 19.1047 19.0909 18.0001 19.0909H12.9092C11.8046 19.0909 10.9092 18.1955 10.9092 17.0909V12ZM17.2728 10.6818H13.6365V12.6707C13.6365 13.027 14.0673 13.2055 14.3193 12.9535L15.1718 12.101C15.328 11.9448 15.5813 11.9448 15.7375 12.101L16.59 12.9535C16.842 13.2055 17.2728 13.027 17.2728 12.6707V10.6818ZM0 12.0001C0 10.8955 0.895431 10.0001 2 10.0001H2.27273H3.12727H5.96364H6.81818H7.09091C8.19548 10.0001 9.09091 10.8955 9.09091 12.0001V17.091C9.09091 18.1956 8.19548 19.091 7.09091 19.091H2C0.895429 19.091 0 18.1956 0 17.091V12.0001ZM6.36364 10.6819H2.72727V12.6708C2.72727 13.0271 3.15813 13.2056 3.41012 12.9536L4.26261 12.1011C4.41882 11.9449 4.67209 11.9449 4.8283 12.1011L5.68079 12.9536C5.93278 13.2056 6.36364 13.0271 6.36364 12.6708V10.6819Z" fill="#2090FB"/>
</svg>
