<svg width="16" height="16" viewBox="0 0 16 16" fill="none" xmlns="http://www.w3.org/2000/svg">
<path d="M14.6667 12.667C14.6667 13.7716 13.7713 14.667 12.6667 14.667C11.5621 14.667 10.6667 13.7716 10.6667 12.667C10.6667 11.5624 11.5621 10.667 12.6667 10.667C13.7713 10.667 14.6667 11.5624 14.6667 12.667Z" fill="#C9CED4"/>
<path fill-rule="evenodd" clip-rule="evenodd" d="M10.3334 2.66634C9.41288 2.66634 8.66669 3.41253 8.66669 4.33301V11.6663C8.66669 13.3232 7.32354 14.6663 5.66669 14.6663C4.00983 14.6663 2.66669 13.3232 2.66669 11.6663V6.66634C2.66669 6.29815 2.96516 5.99967 3.33335 5.99967C3.70154 5.99967 4.00002 6.29815 4.00002 6.66634V11.6663C4.00002 12.5868 4.74621 13.333 5.66669 13.333C6.58716 13.333 7.33335 12.5868 7.33335 11.6663V4.33301C7.33335 2.67615 8.6765 1.33301 10.3334 1.33301C11.9902 1.33301 13.3334 2.67615 13.3334 4.33301V8.66634C13.3334 9.03453 13.0349 9.33301 12.6667 9.33301C12.2985 9.33301 12 9.03453 12 8.66634V4.33301C12 3.41253 11.2538 2.66634 10.3334 2.66634Z" fill="#C9CED4"/>
<path d="M2.7575 1.65399C3.01475 1.21299 3.65196 1.21299 3.90921 1.654L5.08185 3.66424C5.34111 4.10868 5.02052 4.66682 4.506 4.66682H2.16071C1.64619 4.66682 1.3256 4.10868 1.58486 3.66424L2.7575 1.65399Z" fill="#C9CED4"/>
</svg>
