<svg width="23" height="10" viewBox="0 0 23 10" fill="none" xmlns="http://www.w3.org/2000/svg">
<path d="M0.0767399 0.78221C1.55405 -0.285509 3.03137 -0.259942 4.50843 0.858911C5.75745 1.80489 7.70654 1.77854 8.96253 0.838458C10.4563 -0.279413 11.95 -0.279413 13.4438 0.838458C14.6998 1.77854 16.6488 1.80489 17.8979 0.858911C19.3752 -0.260139 20.8525 -0.285706 22.3296 0.78221C22.3781 0.817217 22.4062 0.868155 22.4062 0.919879V3.25218C20.9125 2.13431 19.419 2.33531 17.9252 3.45298C16.663 4.39739 14.7097 4.4029 13.449 3.45731C11.9518 2.33413 10.4543 2.33413 8.95705 3.45731C7.69633 4.40309 5.74301 4.39739 4.4808 3.45298C2.9873 2.33531 1.49381 2.13431 6.10352e-05 3.25218V0.919879C6.10352e-05 0.868155 0.0281932 0.817217 0.0767399 0.78221Z" fill="#19344D" fill-opacity="0.22"/>
<path d="M22.4061 3.25252C20.9034 2.12777 19.4004 2.13465 17.8977 3.27297C16.6487 4.21896 14.6996 4.1926 13.4436 3.25252C11.9499 2.13465 10.4562 2.13465 8.96241 3.25252C7.70642 4.1926 5.75733 4.21896 4.50831 3.27297C3.0056 2.13465 1.50265 2.12777 -6.10352e-05 3.25252V5.86724C1.50265 4.74249 3.0056 4.74937 4.50831 5.8877C5.75733 6.83368 7.70642 6.80733 8.96241 5.86724C10.4562 4.74937 11.9499 4.74937 13.4436 5.86724C14.6996 6.80733 16.6487 6.83368 17.8977 5.8877C19.4004 4.74937 20.9034 4.74269 22.4061 5.86724V3.25252Z" fill="white"/>
<path d="M-6.10352e-05 5.75545C1.50265 4.6307 3.0056 4.63758 4.50831 5.7759C5.75733 6.72188 7.70642 6.69553 8.96241 5.75545C10.4562 4.63758 11.9499 4.63758 13.4436 5.75545C14.6996 6.69553 16.6487 6.72188 17.8977 5.7759C19.4004 4.63758 20.9034 4.6307 22.4061 5.75545V8.16918C20.9126 7.0515 19.4191 7.2523 17.9256 8.36978C16.6632 9.31438 14.7096 9.31989 13.4486 8.3741C11.9516 7.25112 10.4544 7.25112 8.95743 8.3741C7.69646 9.31989 5.74289 9.31438 4.48043 8.36978C2.98693 7.2523 1.49344 7.05131 -6.10352e-05 8.16918V5.75545Z" fill="#19344D" fill-opacity="0.22"/>
</svg>
