<svg width="11" height="13" viewBox="0 0 11 13" fill="none" xmlns="http://www.w3.org/2000/svg">
<path d="M5.5 0C2.76146 0 0 0.347851 0 2.72949V9.22949C0 10.5523 1.08777 11.634 2.41246 11.634L1.39092 12.6521V13H2.91176L4.28231 11.634H6.86799L8.23854 13H9.60908V12.6521L8.58754 11.634C9.91478 11.634 11 10.5498 11 9.22949V2.72949C11 0.347851 8.54423 0 5.5 0ZM2.41246 10.2705C1.84692 10.2705 1.39092 9.81602 1.39092 9.25234C1.39092 8.68867 1.84692 8.23418 2.41246 8.23418C2.978 8.23418 3.434 8.68867 3.434 9.25234C3.434 9.81602 2.978 10.2705 2.41246 10.2705ZM4.80454 5.48184H1.39092V2.72949H4.82492V5.48184H4.80454ZM6.19546 5.48184V2.72949H9.62946V5.45898H6.19546V5.48184ZM8.58754 10.2705C8.022 10.2705 7.566 9.81602 7.566 9.25234C7.566 8.68867 8.022 8.23418 8.58754 8.23418C9.15308 8.23418 9.60908 8.68867 9.60908 9.25234C9.60908 9.81602 9.15308 10.2705 8.58754 10.2705Z" fill="#CCD2D8"/>
</svg>
