<svg width="11" height="9" viewBox="0 0 11 9" fill="none" xmlns="http://www.w3.org/2000/svg">
<path d="M8.6625 6.15016H2.34437C2.26875 6.15016 2.20687 6.21203 2.20687 6.28766L2.20516 7.11266C2.20516 7.18828 2.26703 7.25016 2.34266 7.25016H8.6625C8.73812 7.25016 8.8 7.18828 8.8 7.11266V6.28766C8.8 6.21203 8.73812 6.15016 8.6625 6.15016ZM8.6625 7.80016H2.33922C2.26359 7.80016 2.20172 7.86203 2.20172 7.93766L2.2 8.76266C2.2 8.83828 2.26188 8.90016 2.3375 8.90016H8.6625C8.73812 8.90016 8.8 8.83828 8.8 8.76266V7.93766C8.8 7.86203 8.73812 7.80016 8.6625 7.80016ZM8.6625 4.50016H2.34781C2.27219 4.50016 2.21031 4.56203 2.21031 4.63766L2.20859 5.46266C2.20859 5.53828 2.27047 5.60016 2.34609 5.60016H8.6625C8.73812 5.60016 8.8 5.53828 8.8 5.46266V4.63766C8.8 4.56203 8.73812 4.50016 8.6625 4.50016ZM10.493 2.11109L5.81625 0.163751C5.71573 0.122051 5.60797 0.100586 5.49914 0.100586C5.39031 0.100586 5.28255 0.122051 5.18203 0.163751L0.507031 2.11109C0.201094 2.24 0 2.53906 0 2.8725V8.76266C0 8.83828 0.061875 8.90016 0.1375 8.90016H1.5125C1.58812 8.90016 1.65 8.83828 1.65 8.76266V4.50016C1.65 4.19766 1.90094 3.95016 2.21031 3.95016H8.78969C9.09906 3.95016 9.35 4.19766 9.35 4.50016V8.76266C9.35 8.83828 9.41187 8.90016 9.4875 8.90016H10.8625C10.9381 8.90016 11 8.83828 11 8.76266V2.8725C11 2.53906 10.7989 2.24 10.493 2.11109Z" fill="#CCD2D8"/>
</svg>
