<svg xmlns="http://www.w3.org/2000/svg"  viewBox="0 0 72 72" width="80px" height="80px"><path d="M42.5,14C56.875,14,58,15.125,58,29.5v13C58,56.875,56.875,58,42.5,58h-13C15.125,58,14,56.875,14,42.5v-13	C14,15.125,15.125,14,29.5,14H42.5z M29.466,43.808c0.055-0.096,0.563-0.981,1.314-2.291c-0.711-0.833-1.6-1.042-2.622-0.782	c-0.577,1.006-0.955,1.665-1.003,1.747c-0.366,0.638-0.146,1.452,0.492,1.818C28.287,44.667,29.1,44.446,29.466,43.808z M38.876,40.088c0.559-1.527-0.583-2.531-1.528-2.663c-1.409,0-2.856,0-4.219,0c2.599-4.53,5.649-9.845,5.79-10.09	c0.366-0.638,0.146-1.452-0.492-1.818c-0.638-0.366-1.452-0.146-1.818,0.492c-0.035,0.061-0.261,0.455-0.609,1.061	c-0.352-0.612-0.573-0.999-0.609-1.061c-0.366-0.638-1.18-0.858-1.818-0.492c-0.638,0.366-0.858,1.18-0.492,1.818	c0.057,0.099,0.594,1.036,1.383,2.411c-1.305,2.274-2.983,5.198-4.406,7.679c-2.004,0-3.423,0-3.555,0	c-0.736,0-1.332,0.596-1.332,1.332c0,0.735,0.596,1.332,1.332,1.332C26.799,40.088,33.511,40.088,38.876,40.088z M45.496,40.088	c0.735,0,1.332-0.596,1.332-1.332c0-0.735-0.596-1.332-1.332-1.332c-0.132,0-1.555,0-3.555,0c-1.266-2.206-2.736-4.769-3.964-6.909	c-1.051,1.297-1.221,2.719-0.632,4.25c2.446,4.263,5.059,8.816,5.188,9.042c0.366,0.638,1.18,0.858,1.818,0.492	s0.858-1.18,0.492-1.818c-0.057-0.099-0.592-1.031-1.374-2.395C44.634,40.088,45.401,40.088,45.496,40.088z"/></svg>