<svg width="18" height="21" viewBox="0 0 18 21" fill="none" xmlns="http://www.w3.org/2000/svg">
<path d="M0 6.5C0 4.29086 1.79086 2.5 4 2.5H14C16.2091 2.5 18 4.29086 18 6.5V8V17C18 19.2091 16.2091 21 14 21H4C1.79086 21 0 19.2091 0 17V8V6.5Z" fill="#BDDDFB"/>
<path d="M14 2.5H4C1.79086 2.5 0 4.29086 0 6.5V8H18V6.5C18 4.29086 16.2091 2.5 14 2.5Z" fill="#2090FB"/>
<path opacity="0.4" fill-rule="evenodd" clip-rule="evenodd" d="M5 0.25C5.41421 0.25 5.75 0.585786 5.75 1V4C5.75 4.41421 5.41421 4.75 5 4.75C4.58579 4.75 4.25 4.41421 4.25 4V1C4.25 0.585786 4.58579 0.25 5 0.25ZM13 0.25C13.4142 0.25 13.75 0.585786 13.75 1V4C13.75 4.41421 13.4142 4.75 13 4.75C12.5858 4.75 12.25 4.41421 12.25 4V1C12.25 0.585786 12.5858 0.25 13 0.25Z" fill="#2090FB"/>
<path fill-rule="evenodd" clip-rule="evenodd" d="M12.4939 11.4356C12.8056 11.7083 12.8372 12.1822 12.5645 12.4939L9.69455 15.7738C9.07786 16.4786 8.01561 16.5729 7.28433 15.9879L5.53151 14.5857C5.20806 14.3269 5.15562 13.8549 5.41438 13.5315C5.67313 13.208 6.1451 13.1556 6.46855 13.4144L8.22137 14.8166C8.32584 14.9002 8.47759 14.8867 8.56569 14.786L11.4356 11.5061C11.7084 11.1944 12.1822 11.1628 12.4939 11.4356Z" fill="#2090FB"/>
</svg>
