<svg width="20" height="18" viewBox="0 0 20 18" fill="none" xmlns="http://www.w3.org/2000/svg">
<path d="M11 0H9C4.02944 0 0 4.02944 0 9V14C0 16.2091 1.79086 18 4 18H11C15.9706 18 20 13.9706 20 9C20 4.02944 15.9706 0 11 0Z" fill="#BDDCFB"/>
<path fill-rule="evenodd" clip-rule="evenodd" d="M5.25 11C5.25 11.4142 5.58579 11.75 6 11.75H10C10.4142 11.75 10.75 11.4142 10.75 11C10.75 10.5858 10.4142 10.25 10 10.25H6C5.58579 10.25 5.25 10.5858 5.25 11ZM5.25 7C5.25 7.41421 5.58579 7.75 6 7.75H14C14.4142 7.75 14.75 7.41421 14.75 7C14.75 6.58579 14.4142 6.25 14 6.25H6C5.58579 6.25 5.25 6.58579 5.25 7Z" fill="#2090FB"/>
</svg>
