<svg width="21" height="26" viewBox="0 0 21 26" fill="none" xmlns="http://www.w3.org/2000/svg">
<path fill-rule="evenodd" clip-rule="evenodd" d="M8.06472 10.2622L18.3621 12.3895L10.8197 6.46838C10.6317 6.59386 10.4145 6.67621 10.1921 6.69974C9.95594 6.72522 9.71114 6.68797 9.48702 6.57425L1.83249 11.4739V24.0003L0.165393 23.6768C0.10333 23.6651 0.0516099 23.618 0.0516099 23.5474V11.8229C0.00851015 11.5993 0.0981577 11.3601 0.284349 11.2445L8.81294 5.7802C8.69571 5.47238 8.63709 5.08222 8.66467 4.59794L9.44737 4.65284C9.42668 5.01359 9.46805 5.27632 9.54736 5.46062C9.6801 5.49003 9.80078 5.58218 9.86974 5.72726C9.88009 5.75079 9.89043 5.77432 9.89733 5.79785C9.95939 5.81549 10.0249 5.82137 10.0887 5.81745C10.0146 5.6508 10.0215 5.44297 10.1214 5.27828C10.2145 5.12339 10.368 5.043 10.5231 5.04889C10.4956 5.01163 10.4645 4.98222 10.4352 4.95282C10.2301 4.74695 10.0318 4.54696 9.98008 3.88819L9.97835 3.88623L9.97318 3.82741C9.59735 3.65684 9.33013 3.23726 9.33013 2.74907C9.33013 2.26871 9.58701 1.85502 9.95422 1.67857V0.951172H10.7386V1.6766C11.1093 1.8511 11.3713 2.26479 11.3713 2.75103C11.3713 3.22746 11.1196 3.63723 10.7576 3.81565C10.7835 4.11759 10.8662 4.20189 10.9524 4.28816C11.1076 4.44501 11.2679 4.60578 11.3748 5.01359C11.4317 5.23318 11.4351 5.44297 11.3955 5.63315L20.2861 12.611C20.3775 12.6836 20.4395 12.7855 20.4688 12.8992C20.4826 12.9247 20.4895 12.9541 20.4895 12.9855V22.226C20.4895 22.3299 20.412 22.3965 20.3223 22.4161L8.063 24.965C7.97335 24.9846 7.89577 24.8787 7.89577 24.7748V10.4524C7.8975 10.3485 7.97335 10.2446 8.06472 10.2622ZM2.48071 11.0935L4.38228 10.7327V24.4944L2.48071 24.1258V11.0935ZM5.0305 10.6092L7.21135 10.1955C7.27341 10.1838 7.32513 10.2544 7.32513 10.3249V24.9101C7.32513 24.9806 7.27341 25.0512 7.21135 25.0395L5.0305 24.6179V10.6582V10.6092ZM19.8999 13.6384V21.5927H19.6844V13.6384H19.8999ZM9.637 12.0542V23.4141H8.98878V11.8268L9.637 12.0542ZM11.4075 12.2424V23.1141H10.8145V12.1542L11.4075 12.2424ZM12.9936 12.5346V22.8122H12.454V12.4208L12.9936 12.5346ZM14.4073 12.7855V22.5906H13.9211V12.6561L14.4073 12.7855ZM15.7106 13.0228V22.3161H15.2796V12.9208L15.7106 13.0228ZM16.914 13.1953V22.1064H16.5364V13.0973L16.914 13.1953ZM17.9915 13.4188V21.9162H17.6674V13.3031L17.9915 13.4188ZM18.9948 13.611V21.7378H18.7242V13.4698L18.9948 13.611Z" fill="#A7D1FA"/>
</svg>
