<svg width="22" height="22" viewBox="0 0 22 22" fill="none" xmlns="http://www.w3.org/2000/svg">
<g clip-path="url(#clip0_20_10806)">
<path d="M11.2131 9.07557C11.0768 9.04519 10.9353 9.04514 10.799 9.07552L5.3882 10.2798L5.89579 7.06508C5.94875 6.72975 6.23731 6.48248 6.57683 6.48158L8.08535 6.47753L8.33229 3.42647C8.36129 3.06819 8.66005 2.79187 9.01952 2.79092L10.0463 2.78816L10.0416 1.01855C10.0401 0.492531 10.4654 0.0649053 10.9915 0.0634766C10.9924 0.0634766 10.9932 0.0634766 10.9941 0.0634766C11.5189 0.0634766 11.9451 0.488245 11.9466 1.01341L11.9513 2.78301L12.9509 2.78034C13.3104 2.77934 13.6106 3.05405 13.6415 3.41223L13.9048 6.46195L15.3936 6.45795C15.7331 6.45705 16.023 6.70275 16.0777 7.03779L16.6071 10.2776L11.2131 9.07557Z" fill="#BFDEFB"/>
<path d="M16.7414 17.8683C15.9127 17.2647 14.9171 16.9389 13.8707 16.9389C12.8245 16.9389 11.8288 17.2647 11 17.8683C10.1713 17.2647 9.17566 16.9389 8.12933 16.9389C7.08306 16.9389 6.08755 17.2647 5.25873 17.8682C4.90668 17.6116 4.52444 17.4057 4.1213 17.2531L2.80379 13.6049C2.73631 13.418 2.7525 13.2112 2.84818 13.037C2.94391 12.8629 3.10988 12.7384 3.30381 12.6952L11.0058 10.981L18.6965 12.6949C18.8904 12.7381 19.0564 12.8626 19.152 13.0367C19.2477 13.2108 19.2639 13.4177 19.1964 13.6045L17.8783 17.2541C17.4753 17.4065 17.0932 17.6121 16.7414 17.8683Z" fill="#BFDEFB"/>
<path d="M0.278988 19.716C0.842299 19.1527 1.59125 18.8425 2.38788 18.8425C3.1845 18.8425 3.93345 19.1527 4.49677 19.716C4.70027 19.9195 4.97083 20.0316 5.25863 20.0316C5.54642 20.0316 5.81698 19.9195 6.02044 19.716C6.60189 19.1346 7.36566 18.8439 8.12937 18.8439C8.89309 18.8439 9.65681 19.1346 10.2382 19.716C10.4417 19.9195 10.7123 20.0316 11.0001 20.0316C11.2879 20.0316 11.5584 19.9195 11.7619 19.716C12.3433 19.1346 13.1071 18.8439 13.8708 18.8439C14.6345 18.8439 15.3983 19.1346 15.9797 19.716C16.1897 19.926 16.4656 20.0311 16.7415 20.0311C17.0174 20.0311 17.2933 19.926 17.5033 19.716C18.0847 19.1346 18.8485 18.8439 19.6122 18.8439C20.3759 18.8439 21.1397 19.1346 21.7211 19.716C22.0931 20.088 22.0931 20.6911 21.7211 21.0631C21.3491 21.435 20.746 21.4351 20.374 21.0631C20.164 20.853 19.8881 20.748 19.6122 20.748C19.3362 20.748 19.0604 20.853 18.8503 21.0631C18.2689 21.6445 17.5052 21.9352 16.7415 21.9352C15.9778 21.9352 15.214 21.6445 14.6326 21.0631C14.4226 20.853 14.1466 20.748 13.8707 20.748C13.5948 20.748 13.3189 20.853 13.1089 21.0631C12.5457 21.6264 11.7967 21.9366 11.0001 21.9366C10.2034 21.9366 9.45449 21.6264 8.89118 21.0631C8.68116 20.853 8.40522 20.748 8.12932 20.748C7.85343 20.748 7.57754 20.853 7.36751 21.0631C6.80425 21.6264 6.05525 21.9366 5.25867 21.9366C4.46205 21.9366 3.71309 21.6264 3.14978 21.0631C2.94628 20.8596 2.67572 20.7475 2.38792 20.7475C2.10013 20.7475 1.82957 20.8596 1.62606 21.0631C1.25406 21.435 0.651035 21.4351 0.279036 21.0631C-0.0930119 20.6911 -0.0930119 20.088 0.278988 19.716Z" fill="#007BF0"/>
</g>
<defs>
<clipPath id="clip0_20_10806">
<rect width="22" height="22" fill="white" transform="matrix(-1 0 0 1 22 0)"/>
</clipPath>
</defs>
</svg>
