<svg width="158" height="152" viewBox="0 0 158 152" fill="none" xmlns="http://www.w3.org/2000/svg">
<circle cx="79.0146" cy="43.9853" r="43.9853" fill="#2090FB" fill-opacity="0.15"/>
<path d="M69.2404 71.9821L49.6914 60.7666V38.3213L69.2404 49.544V71.9821Z" fill="#2090FB"/>
<path d="M51.3476 61.0851L50.4758 60.5868V39.6436L51.3476 40.1419V61.0851Z" fill="#007BF0"/>
<path d="M53.2451 62.1759L52.3806 61.6776V40.7344L53.2451 41.2327V62.1759Z" fill="#007BF0"/>
<path d="M55.147 63.2657L54.2825 62.7674V41.8242L55.147 42.3225V63.2657Z" fill="#007BF0"/>
<path d="M57.05 64.3566L56.1782 63.8583V42.915L57.05 43.4133V64.3566Z" fill="#007BF0"/>
<path d="M58.9465 65.447L58.082 64.9487V44.0127L58.9465 44.5038V65.447Z" fill="#007BF0"/>
<path d="M60.8493 66.5368L59.9849 66.0458V45.1025L60.8493 45.5936V66.5368Z" fill="#007BF0"/>
<path d="M62.7531 67.6277L61.8813 67.1366V46.1934L62.7531 46.6844V67.6277Z" fill="#007BF0"/>
<path d="M64.6499 68.7247L63.7854 68.2264V47.2832L64.6499 47.7743V68.7247Z" fill="#007BF0"/>
<path d="M66.5522 69.8083L65.6877 69.3172V48.374L66.5522 48.8651V69.8083Z" fill="#007BF0"/>
<path d="M68.4565 70.9073L67.5847 70.409V49.4658L68.4565 49.9641V70.9073Z" fill="#007BF0"/>
<path d="M88.7895 60.7666L69.2405 71.9821V49.544L88.7895 38.3213V60.7666Z" fill="#007BF0"/>
<path d="M70.8965 70.409L70.032 70.9073V49.9641L70.8965 49.4658V70.409Z" fill="#2868A5"/>
<path d="M72.7927 69.3172L71.9282 69.8083V48.8651L72.7927 48.374V69.3172Z" fill="#2868A5"/>
<path d="M74.697 68.2264L73.8325 68.7247V47.7743L74.697 47.2832V68.2264Z" fill="#2868A5"/>
<path d="M76.5998 67.1366L75.728 67.6277V46.6844L76.5998 46.1934V67.1366Z" fill="#2868A5"/>
<path d="M78.4951 66.0458L77.6306 66.5368V45.5936L78.4951 45.1025V66.0458Z" fill="#2868A5"/>
<path d="M80.3994 64.9487L79.5349 65.447V44.5038L80.3994 44.0127V64.9487Z" fill="#2868A5"/>
<path d="M82.3017 63.8583L81.4373 64.3566V43.4133L82.3017 42.915V63.8583Z" fill="#2868A5"/>
<path d="M84.1977 62.7674L83.3333 63.2657V42.3225L84.1977 41.8242V62.7674Z" fill="#2868A5"/>
<path d="M86.1018 61.6776L85.2373 62.1759V41.2327L86.1018 40.7344V61.6776Z" fill="#2868A5"/>
<path d="M88.0051 60.5868L87.1406 61.0851V40.1419L88.0051 39.6436V60.5868Z" fill="#2868A5"/>
<path d="M108.338 49.5446L88.7893 60.7673V38.3219L108.338 27.1064V49.5446Z" fill="#007BF0"/>
<path d="M90.446 59.1864L89.5815 59.6847V38.7415L90.446 38.2432V59.1864Z" fill="#2868A5"/>
<path d="M92.3415 58.0956L91.4771 58.5939V37.6506L92.3415 37.1523V58.0956Z" fill="#2868A5"/>
<path d="M94.2453 57.0047L93.3809 57.503V36.5598L94.2453 36.0615V57.0047Z" fill="#2868A5"/>
<path d="M96.1474 55.9139L95.283 56.4122V35.469L96.1474 34.9707V55.9139Z" fill="#2868A5"/>
<path d="M98.0444 54.8241L97.1799 55.3224V34.3792L98.0444 33.8809V54.8241Z" fill="#2868A5"/>
<path d="M99.9477 53.7333L99.0833 54.2316V33.2883L99.9477 32.79V53.7333Z" fill="#2868A5"/>
<path d="M101.851 52.6434L100.987 53.1417V32.1985L101.851 31.7002V52.6434Z" fill="#2868A5"/>
<path d="M103.747 51.5516L102.883 52.0499V31.0995L103.747 30.6084V51.5516Z" fill="#2868A5"/>
<path d="M105.651 50.4618L104.786 50.9529V30.0096L105.651 29.5186V50.4618Z" fill="#2868A5"/>
<path d="M107.555 49.3704L106.683 49.8614V28.9182L107.555 28.4199V49.3704Z" fill="#2868A5"/>
<path d="M69.2405 27.1065L88.7895 15.8838L108.338 27.1065L88.7895 38.3219L69.2405 27.1065Z" fill="#7BBFFF"/>
<path d="M87.6851 17.1477L88.5495 16.6494L106.791 27.121L105.926 27.6193L87.6851 17.1477Z" fill="#2090FB"/>
<path d="M85.782 18.2376L86.6465 17.7393L104.895 28.2109L104.031 28.7092L85.782 18.2376Z" fill="#2090FB"/>
<path d="M83.8782 19.3284L84.7499 18.8301L102.991 29.3017L102.127 29.8L83.8782 19.3284Z" fill="#2090FB"/>
<path d="M81.9822 20.4192L82.8467 19.9209L101.088 30.3925L100.224 30.8908L81.9822 20.4192Z" fill="#2090FB"/>
<path d="M80.0793 21.51L80.9438 21.0117L99.1925 31.4833L98.328 31.9816L80.0793 21.51Z" fill="#2090FB"/>
<path d="M78.1753 22.5999L79.047 22.1016L97.2884 32.5732L96.4239 33.0715L78.1753 22.5999Z" fill="#2090FB"/>
<path d="M76.2803 23.6903L77.1448 23.1992L95.3861 33.6708L94.5217 34.1619L76.2803 23.6903Z" fill="#2090FB"/>
<path d="M74.377 24.7811L75.2414 24.29L93.4901 34.7616L92.6256 35.2527L74.377 24.7811Z" fill="#2090FB"/>
<path d="M72.4734 25.871L73.3379 25.3799L91.5865 35.8515L90.722 36.3426L72.4734 25.871Z" fill="#2090FB"/>
<path d="M70.5764 26.969L71.4409 26.4707L89.6823 36.9423L88.8178 37.4334L70.5764 26.969Z" fill="#2090FB"/>
<path d="M49.6914 38.3219L69.2404 27.1064L88.7894 38.3219L69.2404 49.5446L49.6914 38.3219Z" fill="#7BBFFF"/>
<path d="M68.136 28.3704L69.0005 27.8721L87.2418 38.3437L86.3774 38.842L68.136 28.3704Z" fill="#2090FB"/>
<path d="M66.2332 29.4602L67.0976 28.9619L85.3463 39.4335L84.4818 39.9318L66.2332 29.4602Z" fill="#2090FB"/>
<path d="M64.3301 30.551L65.2018 30.0527L83.4432 40.5243L82.5787 41.0226L64.3301 30.551Z" fill="#2090FB"/>
<path d="M62.4336 31.6409L63.2981 31.1426L81.5395 41.6142L80.675 42.1125L62.4336 31.6409Z" fill="#2090FB"/>
<path d="M60.5308 32.7327L61.3952 32.2344L79.6439 42.706L78.7794 43.2043L60.5308 32.7327Z" fill="#2090FB"/>
<path d="M58.6265 33.8225L59.4982 33.3242L77.7396 43.7958L76.8751 44.2941L58.6265 33.8225Z" fill="#2090FB"/>
<path d="M56.7312 34.9133L57.5957 34.415L75.8371 44.8866L74.9726 45.3849L56.7312 34.9133Z" fill="#2090FB"/>
<path d="M54.8274 36.0042L55.6919 35.5059L73.9405 45.9775L73.076 46.4758L54.8274 36.0042Z" fill="#2090FB"/>
<path d="M52.9319 37.094L53.7964 36.5957L72.0377 47.0673L71.1733 47.5656L52.9319 37.094Z" fill="#2090FB"/>
<path d="M51.0281 38.1848L51.8926 37.6865L70.1339 48.1581L69.2695 48.6564L51.0281 38.1848Z" fill="#2090FB"/>
<path d="M0.591406 110V116.16H7.79141V138H14.1914V116.16H21.3914V110H0.591406ZM30.593 126.88H40.593V120.8H30.593V116.16H41.593V110H24.193V138H41.793V131.84H30.593V126.88ZM45.2039 128.96C45.2039 131.88 46.2039 134.24 48.2439 135.96C50.2839 137.68 52.8439 138.56 56.0039 138.56C59.1639 138.56 61.7239 137.68 63.7639 135.96C65.8039 134.24 66.8039 131.88 66.8039 128.96V110H60.4039V128.4C60.4039 131 58.9239 132.32 56.0039 132.32C53.0839 132.32 51.6039 131 51.6039 128.4V110H45.2039V128.96ZM81.2195 138.56C84.2995 138.56 86.8195 137.8 88.7395 136.28C90.6595 134.72 91.6195 132.64 91.6195 129.96C91.6195 127.68 90.6995 125.84 89.6995 124.76C89.2195 124.2 88.4995 123.68 87.5395 123.2C86.6195 122.68 85.8195 122.32 85.2195 122.12L82.6195 121.28C80.5795 120.68 79.2195 120.12 78.5395 119.6C77.8995 119.08 77.5795 118.48 77.5795 117.8C77.5795 116.64 78.6595 115.68 80.5795 115.68C83.0195 115.68 84.4195 116.8 85.4195 118.92L90.8195 115.76C88.7795 111.64 85.1795 109.44 80.5795 109.44C78.0195 109.44 75.8195 110.2 73.9395 111.76C72.0995 113.32 71.1795 115.36 71.1795 117.96C71.1795 120.52 72.0995 122.52 73.7395 123.84C75.4595 125.12 77.0595 125.84 79.4195 126.48C81.6595 127.08 83.1795 127.64 83.9795 128.12C84.8195 128.56 85.2195 129.2 85.2195 130.04C85.2195 131.56 83.9395 132.32 81.4195 132.32C78.6195 132.32 76.6595 131.04 75.5395 128.44L70.0195 131.64C71.6195 135.92 75.4995 138.56 81.2195 138.56ZM91.8023 110V116.16H99.0023V138H105.402V116.16H112.602V110H91.8023ZM138.212 138L128.692 110H120.532L111.012 138H118.012L119.412 133.6H129.812L131.212 138H138.212ZM124.612 117.32L127.892 127.6H121.332L124.612 117.32ZM136.607 110V116.16H143.807V138H150.207V116.16H157.407V110H136.607Z" fill="#43A3FF"/>
</svg>
